<svg width="769" height="163" viewBox="0 0 769 163" fill="none" xmlns="http://www.w3.org/2000/svg">
<mask id="path-1-inside-1" fill="white">
<path d="M461.275 30.3922L459.597 24.0079C459.466 23.5074 459.765 22.9971 460.266 22.8666L466.444 21.2525C466.945 21.122 467.456 21.4211 467.587 21.9216C467.719 22.4221 467.42 22.9324 466.918 23.0629L461.647 24.438L462.848 29.0109L468.12 27.6358C468.621 27.5053 469.132 27.8044 469.263 28.3049C469.394 28.8054 469.095 29.3157 468.594 29.4462L462.416 31.0604C461.918 31.1918 461.407 30.8927 461.275 30.3922Z"/>
</mask>
<path d="M461.275 30.3922L459.597 24.0079C459.466 23.5074 459.765 22.9971 460.266 22.8666L466.444 21.2525C466.945 21.122 467.456 21.4211 467.587 21.9216C467.719 22.4221 467.42 22.9324 466.918 23.0629L461.647 24.438L462.848 29.0109L468.12 27.6358C468.621 27.5053 469.132 27.8044 469.263 28.3049C469.394 28.8054 469.095 29.3157 468.594 29.4462L462.416 31.0604C461.918 31.1918 461.407 30.8927 461.275 30.3922Z" fill="white"/>
<path d="M461.275 30.3922L474.818 26.8433L474.815 26.8321L461.275 30.3922ZM459.597 24.0079L446.054 27.5568L446.057 27.5681L459.597 24.0079ZM460.266 22.8666L463.794 36.4148L463.805 36.4119L460.266 22.8666ZM466.444 21.2525L462.916 7.70427L462.905 7.70712L466.444 21.2525ZM466.918 23.0629L463.39 9.51469L463.384 9.51626L466.918 23.0629ZM461.647 24.438L458.113 10.8914L444.544 14.4312L448.107 27.9944L461.647 24.438ZM462.848 29.0109L449.308 32.5674L452.858 46.0857L466.383 42.5575L462.848 29.0109ZM468.12 27.6358L464.592 14.0876L464.585 14.0892L468.12 27.6358ZM468.594 29.4462L465.066 15.898L465.055 15.9009L468.594 29.4462ZM462.416 31.0604L458.877 17.5151L458.861 17.5193L458.844 17.5236L462.416 31.0604ZM474.815 26.8321L473.136 20.4478L446.057 27.5681L447.736 33.9524L474.815 26.8321ZM473.139 20.459C474.972 27.4513 470.778 34.596 463.794 36.4148L456.738 9.31843C448.751 11.3981 443.959 19.5635 446.054 27.5568L473.139 20.459ZM463.805 36.4119L469.983 34.7978L462.905 7.70712L456.727 9.32128L463.805 36.4119ZM469.972 34.8006C463.012 36.613 455.875 32.4548 454.045 25.4704L481.13 18.3727C479.038 10.3873 470.878 5.63098 462.916 7.70427L469.972 34.8006ZM454.045 25.4704C452.212 18.4781 456.406 11.3334 463.39 9.51469L470.446 36.611C478.433 34.5313 483.225 26.366 481.13 18.3727L454.045 25.4704ZM463.384 9.51626L458.113 10.8914L465.181 37.9846L470.452 36.6095L463.384 9.51626ZM448.107 27.9944L449.308 32.5674L476.389 25.4545L475.188 20.8815L448.107 27.9944ZM466.383 42.5575L471.654 41.1824L464.585 14.0892L459.314 15.4643L466.383 42.5575ZM471.648 41.184C464.688 42.9963 457.551 38.8381 455.72 31.8538L482.806 24.756C480.713 16.7707 472.553 12.0143 464.592 14.0876L471.648 41.184ZM455.72 31.8538C453.888 24.8615 458.082 17.7168 465.066 15.898L472.122 42.9944C480.109 40.9147 484.9 32.7493 482.806 24.756L455.72 31.8538ZM465.055 15.9009L458.877 17.5151L465.955 44.6057L472.133 42.9916L465.055 15.9009ZM458.844 17.5236C465.868 15.6705 472.997 19.8922 474.818 26.8433L447.733 33.9411C449.816 41.8932 457.968 46.7131 465.988 44.5972L458.844 17.5236Z" fill="white" mask="url(#path-1-inside-1)"/>
<mask id="path-3-inside-2" fill="white">
<path d="M453.677 26.4391L450.251 27.3337L451.493 32.0578L454.918 31.1632L453.677 26.4391Z"/>
</mask>
<path d="M453.677 26.4391L450.251 27.3337L451.493 32.0578L454.918 31.1632L453.677 26.4391Z" fill="white"/>
<path d="M450.251 27.3337L446.692 13.7928L433.146 17.3306L436.705 30.8716L450.251 27.3337ZM453.677 26.4391L467.223 22.9013L463.664 9.36031L450.118 12.8982L453.677 26.4391ZM454.918 31.1632L458.477 44.7042L472.023 41.1664L468.465 27.6254L454.918 31.1632ZM451.493 32.0578L437.946 35.5957L441.505 49.1367L455.051 45.5988L451.493 32.0578ZM453.81 40.8747L457.235 39.9801L450.118 12.8982L446.692 13.7928L453.81 40.8747ZM440.13 29.977L441.372 34.7011L468.465 27.6254L467.223 22.9013L440.13 29.977ZM451.359 17.6223L447.934 18.5169L455.051 45.5988L458.477 44.7042L451.359 17.6223ZM465.039 28.52L463.798 23.7959L436.705 30.8716L437.946 35.5957L465.039 28.52Z" fill="white" mask="url(#path-3-inside-2)"/>
<mask id="path-5-inside-3" fill="white">
<path d="M463.537 34.2315C462.837 34.4157 462.119 33.9959 461.934 33.296L458.745 21.1569C458.56 20.457 458.98 19.7409 459.68 19.5567C460.381 19.3724 461.099 19.7923 461.284 20.4922L464.473 32.6313C464.658 33.3312 464.238 34.0473 463.537 34.2315Z"/>
</mask>
<path d="M463.537 34.2315C462.837 34.4157 462.119 33.9959 461.934 33.296L458.745 21.1569C458.56 20.457 458.98 19.7409 459.68 19.5567C460.381 19.3724 461.099 19.7923 461.284 20.4922L464.473 32.6313C464.658 33.3312 464.238 34.0473 463.537 34.2315Z" fill="white"/>
<path d="M461.934 33.296L448.394 36.8531L448.397 36.865L448.4 36.8769L461.934 33.296ZM458.745 21.1569L472.286 17.5997L472.283 17.5878L472.279 17.5759L458.745 21.1569ZM461.284 20.4922L474.824 16.9351L474.821 16.9232L474.818 16.9113L461.284 20.4922ZM464.473 32.6313L450.932 36.1884L450.935 36.2003L450.938 36.2122L464.473 32.6313ZM459.977 20.6917C466.774 18.9047 473.685 22.9758 475.468 29.715L448.4 36.8769C450.553 45.0159 458.9 49.9267 467.097 47.7713L459.977 20.6917ZM475.475 29.7388L472.286 17.5997L445.205 24.714L448.394 36.8531L475.475 29.7388ZM472.279 17.5759C474.086 24.4051 469.979 31.3246 463.24 33.0965L456.12 6.01687C447.98 8.15722 443.034 16.5088 445.211 24.7378L472.279 17.5759ZM463.24 33.0965C456.444 34.8835 449.533 30.8123 447.749 24.0731L474.818 16.9113C472.665 8.77228 464.318 3.86142 456.12 6.01687L463.24 33.0965ZM447.743 24.0493L450.932 36.1884L478.013 29.0742L474.824 16.9351L447.743 24.0493ZM450.938 36.2122C449.132 29.383 453.238 22.4636 459.977 20.6917L467.097 47.7713C475.238 45.631 480.184 37.2794 478.007 29.0504L450.938 36.2122Z" fill="white" mask="url(#path-5-inside-3)"/>
<mask id="path-7-inside-4" fill="white">
<path d="M460.153 20.9629L457.171 21.7406C453.904 22.5938 451.952 25.9277 452.81 29.1907C453.667 32.4537 457.008 34.4064 460.275 33.5532L463.257 32.7755L460.153 20.9629ZM456.44 28.2413C456.281 27.6411 456.64 27.026 457.244 26.8696C457.845 26.7122 458.461 27.0707 458.618 27.6738C458.776 28.274 458.415 28.8882 457.814 29.0456C457.213 29.2029 456.598 28.8415 456.44 28.2413Z"/>
</mask>
<path d="M460.153 20.9629L457.171 21.7406C453.904 22.5938 451.952 25.9277 452.81 29.1907C453.667 32.4537 457.008 34.4064 460.275 33.5532L463.257 32.7755L460.153 20.9629ZM456.44 28.2413C456.281 27.6411 456.64 27.026 457.244 26.8696C457.845 26.7122 458.461 27.0707 458.618 27.6738C458.776 28.274 458.415 28.8882 457.814 29.0456C457.213 29.2029 456.598 28.8415 456.44 28.2413Z" fill="white"/>
<path d="M460.153 20.9629L473.694 17.4054L470.142 3.88962L456.62 7.41601L460.153 20.9629ZM457.171 21.7406L453.638 8.19366L453.633 8.19494L457.171 21.7406ZM460.275 33.5532L456.742 20.0063L456.737 20.0075L460.275 33.5532ZM463.257 32.7755L466.789 46.3225L480.361 42.7832L476.797 29.218L463.257 32.7755ZM457.244 26.8696L460.754 40.4223L460.772 40.4176L460.79 40.4129L457.244 26.8696ZM458.618 27.6738L445.071 31.2053L445.076 31.2233L445.08 31.2414L458.618 27.6738ZM456.62 7.41601L453.638 8.19366L460.704 35.2875L463.686 34.5099L456.62 7.41601ZM453.633 8.19494C442.89 11.0009 436.441 21.988 439.27 32.7493L466.35 25.6321C467.463 29.8674 464.919 34.1866 460.709 35.2862L453.633 8.19494ZM439.27 32.7493C442.092 43.4888 453.079 49.902 463.812 47.0988L456.737 20.0075C460.937 18.9107 465.243 21.4186 466.35 25.6321L439.27 32.7493ZM463.808 47.1001L466.789 46.3225L459.724 19.2286L456.742 20.0063L463.808 47.1001ZM476.797 29.218L473.694 17.4054L446.613 24.5205L449.716 36.3331L476.797 29.218ZM469.977 24.6737C471.792 31.5601 467.67 38.6308 460.754 40.4223L453.733 13.3169C445.61 15.4211 440.771 23.7222 442.902 31.8089L469.977 24.6737ZM460.79 40.4129C453.937 42.2077 446.874 38.1212 445.071 31.2053L472.165 24.1424C470.048 16.0201 461.752 11.2167 453.697 13.3263L460.79 40.4129ZM445.08 31.2414C443.252 24.3016 447.436 17.2914 454.267 15.5023L461.361 42.5889C469.394 40.4851 474.301 32.2465 472.156 24.1063L445.08 31.2414ZM454.267 15.5023C461.174 13.6935 468.177 17.8417 469.977 24.6737L442.902 31.8089C445.019 39.8413 453.252 44.7124 461.361 42.5889L454.267 15.5023Z" fill="white" mask="url(#path-7-inside-4)"/>
<mask id="path-9-inside-5" fill="white">
<path d="M472.716 76.7437C473.08 79.5537 473.098 81.6938 472.775 83.167C471.722 87.7263 468.683 90.6387 463.657 91.9072L445.469 96.5006C443.394 97.0248 441.517 97.1365 439.842 96.8325C438.168 96.5317 436.701 95.9579 435.44 95.1142C435.356 94.0907 435.316 93.3619 435.322 92.9245C435.328 92.4872 435.418 91.8111 435.592 90.8992C436.593 92.0964 437.758 92.9059 439.084 93.3246C440.809 93.9326 442.679 93.9822 444.702 93.4735L462.889 88.8801C466.658 87.9279 468.926 85.7599 469.696 82.3761C469.979 81.2037 469.976 79.5785 469.684 77.5067L465.85 62.3772C465.036 60.3209 464.297 58.8848 463.625 58.066C461.267 55.4142 458.204 54.5613 454.435 55.5134L436.248 60.1069C431.277 61.363 427.244 60.234 424.147 56.7231C423.242 55.6778 422.211 53.789 421.055 51.0627L420.288 48.0356C419.924 45.2255 419.906 43.0855 420.229 41.6122C421.282 37.0529 424.321 34.1406 429.347 32.872L447.535 28.2786C449.666 27.742 451.549 27.6118 453.19 27.894C454.83 28.1762 457.685 21.5513 458.959 22.4476C459.099 23.2261 457.766 31.1041 457.763 31.6562C457.757 32.2083 458.63 25.9431 458.456 26.8581C457.455 25.6609 455.327 31.8516 454 31.4298C452.276 30.8219 450.378 30.7785 448.302 31.3026L430.115 35.896C426.346 36.8482 424.075 39.0162 423.308 42.4C423.025 43.5755 423.028 45.1976 423.32 47.2695L424.088 50.2966C424.886 52.3002 425.619 53.7114 426.293 54.5271C428.652 57.1821 431.715 58.0319 435.483 57.0797L453.671 52.4863C458.639 51.2302 462.675 52.3592 465.772 55.8701C466.692 56.9743 467.727 58.888 468.882 61.6111L472.716 76.7437Z"/>
</mask>
<path d="M472.716 76.7437C473.08 79.5537 473.098 81.6938 472.775 83.167C471.722 87.7263 468.683 90.6387 463.657 91.9072L445.469 96.5006C443.394 97.0248 441.517 97.1365 439.842 96.8325C438.168 96.5317 436.701 95.9579 435.44 95.1142C435.356 94.0907 435.316 93.3619 435.322 92.9245C435.328 92.4872 435.418 91.8111 435.592 90.8992C436.593 92.0964 437.758 92.9059 439.084 93.3246C440.809 93.9326 442.679 93.9822 444.702 93.4735L462.889 88.8801C466.658 87.9279 468.926 85.7599 469.696 82.3761C469.979 81.2037 469.976 79.5785 469.684 77.5067L465.85 62.3772C465.036 60.3209 464.297 58.8848 463.625 58.066C461.267 55.4142 458.204 54.5613 454.435 55.5134L436.248 60.1069C431.277 61.363 427.244 60.234 424.147 56.7231C423.242 55.6778 422.211 53.789 421.055 51.0627L420.288 48.0356C419.924 45.2255 419.906 43.0855 420.229 41.6122C421.282 37.0529 424.321 34.1406 429.347 32.872L447.535 28.2786C449.666 27.742 451.549 27.6118 453.19 27.894C454.83 28.1762 457.685 21.5513 458.959 22.4476C459.099 23.2261 457.766 31.1041 457.763 31.6562C457.757 32.2083 458.63 25.9431 458.456 26.8581C457.455 25.6609 455.327 31.8516 454 31.4298C452.276 30.8219 450.378 30.7785 448.302 31.3026L430.115 35.896C426.346 36.8482 424.075 39.0162 423.308 42.4C423.025 43.5755 423.028 45.1976 423.32 47.2695L424.088 50.2966C424.886 52.3002 425.619 53.7114 426.293 54.5271C428.652 57.1821 431.715 58.0319 435.483 57.0797L453.671 52.4863C458.639 51.2302 462.675 52.3592 465.772 55.8701C466.692 56.9743 467.727 58.888 468.882 61.6111L472.716 76.7437Z" fill="white"/>
<path d="M472.716 76.7437L486.6 74.9476L486.493 74.1171L486.287 73.3054L472.716 76.7437ZM472.775 83.167L486.416 86.3181L486.433 86.2423L486.45 86.1662L472.775 83.167ZM463.657 91.9072L460.231 78.3328L460.228 78.3334L463.657 91.9072ZM445.469 96.5006L442.041 82.9269L442.041 82.9269L445.469 96.5006ZM439.842 96.8325L442.343 83.0576L442.33 83.0553L442.318 83.0531L439.842 96.8325ZM435.44 95.1142L421.487 96.2578L422.039 102.994L427.657 106.751L435.44 95.1142ZM435.592 90.8992L446.335 81.9221L427.381 59.2388L421.84 88.2753L435.592 90.8992ZM439.084 93.3246L443.739 80.1212L443.52 80.0438L443.298 79.9738L439.084 93.3246ZM444.702 93.4735L448.116 107.051L448.13 107.047L444.702 93.4735ZM462.889 88.8801L466.317 102.454L466.319 102.454L462.889 88.8801ZM469.696 82.3761L456.086 79.0941L456.066 79.1808L456.046 79.2678L469.696 82.3761ZM469.684 77.5067L483.547 75.5525L483.441 74.8022L483.255 74.0677L469.684 77.5067ZM465.85 62.3772L479.421 58.9382L479.199 58.0635L478.867 57.2244L465.85 62.3772ZM463.625 58.066L474.453 49.1916L474.275 48.9736L474.087 48.7629L463.625 58.066ZM454.435 55.5134L457.864 69.0872L457.865 69.0869L454.435 55.5134ZM436.248 60.1069L432.82 46.5331L432.818 46.5335L436.248 60.1069ZM424.147 56.7231L413.558 65.8819L413.603 65.9337L413.648 65.9851L424.147 56.7231ZM421.055 51.0627L407.484 54.503L407.748 55.541L408.166 56.527L421.055 51.0627ZM420.288 48.0356L406.404 49.8316L406.511 50.6631L406.717 51.4758L420.288 48.0356ZM420.229 41.6122L406.588 38.4611L406.571 38.537L406.554 38.613L420.229 41.6122ZM429.347 32.872L432.773 46.4465L432.776 46.4458L429.347 32.872ZM447.535 28.2786L444.117 14.7022L444.107 14.7048L447.535 28.2786ZM458.959 22.4476L472.739 19.973L471.721 14.3095L467.016 10.9982L458.959 22.4476ZM457.763 31.6562L471.762 31.8138L471.762 31.7744L471.763 31.735L457.763 31.6562ZM458.456 26.8581L447.713 35.8352L466.683 58.5368L472.209 29.4734L458.456 26.8581ZM454 31.4298L449.346 44.6333L449.551 44.7056L449.758 44.7716L454 31.4298ZM448.302 31.3026L451.731 44.8764L451.731 44.8764L448.302 31.3026ZM430.115 35.896L426.687 22.3223L426.685 22.3226L430.115 35.896ZM423.308 42.4L436.92 45.6739L436.941 45.5853L436.961 45.4964L423.308 42.4ZM423.32 47.2695L409.457 49.2236L409.563 49.9746L409.749 50.7097L423.32 47.2695ZM424.088 50.2966L410.517 53.7369L410.742 54.6267L411.082 55.4794L424.088 50.2966ZM426.293 54.5271L415.502 63.4462L415.661 63.6381L415.826 63.8242L426.293 54.5271ZM435.483 57.0797L432.055 43.506L432.054 43.5063L435.483 57.0797ZM453.671 52.4863L457.099 66.0601L457.103 66.0592L453.671 52.4863ZM465.772 55.8701L476.53 46.9104L476.402 46.7574L476.271 46.6081L465.772 55.8701ZM468.882 61.6111L482.454 58.1728L482.19 57.1309L481.77 56.1416L468.882 61.6111ZM458.832 78.5397C458.963 79.5549 459 80.2152 459.004 80.5836C459.005 80.7592 458.999 80.8124 459.003 80.7631C459.006 80.7186 459.026 80.5064 459.1 80.1678L486.45 86.1662C487.3 82.2913 487.023 78.2165 486.6 74.9476L458.832 78.5397ZM459.134 80.0159C459.131 80.0296 459.173 79.8469 459.334 79.553C459.5 79.249 459.735 78.9362 460.018 78.6641C460.613 78.0942 460.932 78.1558 460.231 78.3328L467.082 105.482C471.408 104.39 475.76 102.361 479.394 98.8782C483.095 95.33 485.347 90.9445 486.416 86.3181L459.134 80.0159ZM460.228 78.3334L442.041 82.9269L448.897 110.074L467.085 105.481L460.228 78.3334ZM442.041 82.9269C441.739 83.0031 441.626 83.0046 441.679 83.0015C441.738 82.9981 441.974 82.9907 442.343 83.0576L437.342 110.607C441.429 111.349 445.375 110.964 448.897 110.074L442.041 82.9269ZM442.318 83.0531C442.307 83.0512 442.404 83.0679 442.579 83.1362C442.758 83.2058 442.982 83.3157 443.223 83.4771L427.657 106.751C430.695 108.783 434.012 110.009 437.367 110.612L442.318 83.0531ZM449.393 93.9707C449.358 93.535 449.337 93.2339 449.327 93.0406C449.324 92.9954 449.323 92.961 449.321 92.9366C449.32 92.912 449.32 92.901 449.32 92.9019C449.32 92.9025 449.321 92.9208 449.321 92.9544C449.321 92.9872 449.322 93.045 449.321 93.1234L421.323 92.7256C421.307 93.9117 421.404 95.2498 421.487 96.2578L449.393 93.9707ZM449.321 93.1234C449.316 93.4275 449.3 93.6491 449.29 93.7587C449.28 93.8753 449.271 93.9401 449.271 93.9411C449.271 93.9448 449.275 93.9117 449.288 93.8361C449.3 93.7616 449.318 93.6583 449.344 93.5231L421.84 88.2753C421.643 89.3088 421.348 90.9936 421.323 92.7256L449.321 93.1234ZM424.849 99.8763C427.347 102.866 430.691 105.356 434.871 106.675L443.298 79.9738C444.825 80.4557 445.838 81.3272 446.335 81.9221L424.849 99.8763ZM434.429 106.528C439.1 108.175 443.812 108.133 448.116 107.051L441.287 79.8963C441.374 79.8745 441.677 79.8101 442.152 79.8227C442.642 79.8357 443.191 79.9278 443.739 80.1212L434.429 106.528ZM448.13 107.047L466.317 102.454L459.461 75.3063L441.273 79.8997L448.13 107.047ZM466.319 102.454C469.994 101.525 473.836 99.7702 477.089 96.6617C480.417 93.4815 482.419 89.558 483.347 85.4844L456.046 79.2678C456.203 78.578 456.686 77.4305 457.745 76.4182C458.729 75.4777 459.553 75.2831 459.46 75.3066L466.319 102.454ZM483.306 85.6582C484.198 81.9604 483.933 78.2899 483.547 75.5525L455.821 79.4608C455.859 79.7344 455.881 79.9431 455.893 80.0925C455.905 80.2432 455.906 80.3132 455.906 80.3122C455.906 80.3101 455.906 80.2848 455.908 80.2379C455.91 80.1912 455.914 80.1181 455.924 80.0212C455.943 79.8346 455.985 79.5146 456.086 79.0941L483.306 85.6582ZM483.255 74.0677L479.421 58.9382L452.279 65.8162L456.113 80.9456L483.255 74.0677ZM478.867 57.2244C477.976 54.9719 476.589 51.7976 474.453 49.1916L452.798 66.9404C452.507 66.5857 452.337 66.3226 452.274 66.2226C452.206 66.1146 452.197 66.0887 452.241 66.1745C452.284 66.2566 452.358 66.408 452.463 66.6429C452.566 66.876 452.69 67.1692 452.833 67.5301L478.867 57.2244ZM474.087 48.7629C471.336 45.6684 467.73 43.1784 463.308 41.9495C458.964 40.7422 454.73 40.9991 451.006 41.94L457.865 69.0869C457.909 69.0757 457.091 69.2828 455.811 68.927C454.452 68.5495 453.557 67.8118 453.164 67.3692L474.087 48.7629ZM451.007 41.9397L432.82 46.5331L439.676 73.6807L457.864 69.0872L451.007 41.9397ZM432.818 46.5335C432.173 46.6965 432.458 46.4942 433.266 46.7201C433.648 46.8271 433.999 46.9918 434.28 47.1749C434.552 47.3516 434.665 47.4836 434.645 47.461L413.648 65.9851C416.766 69.5193 420.803 72.3088 425.723 73.6851C430.565 75.0392 435.352 74.7734 439.678 73.6802L432.818 46.5335ZM434.735 47.5643C434.995 47.8653 435.123 48.0606 435.131 48.0715C435.144 48.0916 435.093 48.0159 434.982 47.813C434.753 47.393 434.404 46.6822 433.945 45.5984L408.166 56.527C409.393 59.4222 411.121 63.0643 413.558 65.8819L434.735 47.5643ZM434.626 47.6224L433.859 44.5953L406.717 51.4758L407.484 54.503L434.626 47.6224ZM434.172 46.2395C434.041 45.2243 434.004 44.5641 434 44.1956C433.999 44.02 434.005 43.9668 434.001 44.0162C433.998 44.0607 433.978 44.2728 433.904 44.6114L406.554 38.613C405.704 42.4879 405.981 46.5628 406.404 49.8316L434.172 46.2395ZM433.87 44.7633C433.873 44.7496 433.831 44.9324 433.67 45.2263C433.504 45.5303 433.269 45.843 432.986 46.1151C432.391 46.685 432.072 46.6234 432.773 46.4465L425.922 19.2976C421.596 20.3891 417.244 22.418 413.61 25.9011C409.909 29.4492 407.657 33.8347 406.588 38.4611L433.87 44.7633ZM432.776 46.4458L450.963 41.8524L444.107 14.7048L425.919 19.2982L432.776 46.4458ZM450.953 41.855C451.144 41.8069 451.285 41.7792 451.378 41.7637C451.472 41.7481 451.511 41.746 451.5 41.7467C451.481 41.748 451.233 41.7631 450.816 41.6913L455.563 14.0967C451.473 13.3929 447.546 13.8389 444.117 14.7022L450.953 41.855ZM450.816 41.6913C455.982 42.5802 459.853 40.4903 461.415 39.4881C463.135 38.3852 464.335 37.1415 464.941 36.4779C465.63 35.7233 466.2 34.9903 466.588 34.4745C466.982 33.9508 467.361 33.4174 467.603 33.0793C467.891 32.6755 468.037 32.474 468.147 32.3298C468.277 32.1594 468.149 32.3451 467.835 32.671C467.666 32.8469 467.333 33.1789 466.848 33.5676C466.39 33.9345 465.542 34.5584 464.333 35.1225C463.125 35.686 461.135 36.3856 458.582 36.3637C455.828 36.34 453.146 35.4758 450.902 33.8971L467.016 10.9982C464.613 9.30746 461.759 8.38995 458.823 8.36472C456.087 8.3412 453.903 9.09095 452.492 9.74925C449.924 10.9478 448.265 12.6277 447.666 13.2494C446.327 14.6404 445.152 16.3373 444.82 16.8018C444.109 17.7972 444.094 17.7838 444.267 17.5942C444.355 17.498 445.053 16.7185 446.297 15.9204C447.384 15.223 450.807 13.2784 455.563 14.0967L450.816 41.6913ZM445.179 24.9223C445.027 24.0728 444.992 23.405 444.98 23.1257C444.966 22.7872 444.969 22.5252 444.972 22.3835C444.975 22.23 444.98 22.1156 444.984 22.0546C444.988 21.9901 444.991 21.9493 444.992 21.9377C444.992 21.9332 444.979 22.0771 444.936 22.4286C444.853 23.1034 444.721 24.0347 444.565 25.087C444.391 26.2655 444.276 27.0039 444.123 28.0343C444.06 28.4571 443.997 28.8907 443.947 29.2584C443.923 29.4372 443.893 29.6691 443.866 29.9092C443.852 30.0285 443.833 30.2065 443.816 30.414C443.804 30.5532 443.766 31.0081 443.763 31.5774L471.763 31.735C471.76 32.2698 471.724 32.6759 471.718 32.7529C471.706 32.8981 471.694 33.0005 471.691 33.0315C471.684 33.0952 471.682 33.1004 471.695 33.0095C471.718 32.8377 471.758 32.5591 471.818 32.1536C471.912 31.5272 472.122 30.1439 472.264 29.1866C472.424 28.1032 472.599 26.8845 472.727 25.846C472.789 25.3407 472.858 24.7372 472.904 24.1507C472.927 23.8646 472.956 23.442 472.966 22.9631C472.97 22.7516 473.01 21.4864 472.739 19.973L445.179 24.9223ZM443.764 31.4986C443.762 31.6744 443.76 32.0513 443.789 32.5256C443.803 32.7648 443.833 33.1593 443.902 33.6428C443.957 34.0333 444.103 34.9834 444.492 36.1413C444.69 36.7321 445.059 37.707 445.714 38.814C446.327 39.8525 447.589 41.6866 449.847 43.2354C450.817 43.844 453.008 44.8572 454.222 45.2347C455.527 45.5104 458.149 45.6855 459.443 45.59C462.772 45.1885 465.121 43.7121 466.391 42.7193C467.681 41.7105 468.52 40.688 468.97 40.087C469.456 39.439 469.797 38.8665 470.01 38.4818C470.427 37.7316 470.685 37.1022 470.806 36.7913C471.059 36.1461 471.208 35.6223 471.261 35.4323C471.331 35.1799 471.382 34.9723 471.412 34.8455C471.471 34.5926 471.513 34.3829 471.535 34.2713C471.614 33.8698 471.683 33.4408 471.721 33.195C471.817 32.5905 471.932 31.8023 472.034 31.083C472.136 30.3605 472.239 29.6087 472.308 29.067C472.33 28.8929 472.387 28.4471 472.423 28.0404C472.427 27.9893 472.467 27.5573 472.476 27.0237C472.479 26.8636 472.482 26.5843 472.468 26.2371C472.459 25.991 472.427 25.2232 472.251 24.258C472.168 23.7987 471.967 22.8061 471.496 21.6157C471.257 21.0493 470.603 19.7689 470.171 19.068C469.52 18.1611 467.723 16.2535 466.538 15.3201C464.899 14.3264 461.065 13.0079 458.929 12.7739C456.919 12.8537 453.389 13.7239 451.907 14.4041C450.857 15.0224 449.174 16.3046 448.522 16.9227C448.065 17.4077 447.317 18.3129 447.018 18.7232C446.4 19.6032 446.018 20.3665 445.836 20.7495C445.628 21.1866 445.48 21.5543 445.39 21.7931C445.211 22.2619 445.096 22.6422 445.041 22.83C444.926 23.2213 444.853 23.5343 444.826 23.6533C444.762 23.9292 444.719 24.1561 444.702 24.2428L472.209 29.4734C472.204 29.5028 472.169 29.6866 472.112 29.9325C472.088 30.0365 472.018 30.3378 471.906 30.7206C471.852 30.9041 471.738 31.281 471.561 31.7471C471.47 31.9845 471.324 32.3511 471.116 32.7872C471.024 32.9765 470.811 33.3898 470.689 33.6127C470.532 33.885 470.157 34.4856 469.935 34.8113C469.636 35.2213 468.888 36.1263 468.431 36.6111C467.78 37.229 466.097 38.5111 465.047 39.1293C463.565 39.8094 460.036 40.6796 458.026 40.7593C455.89 40.5254 452.056 39.2069 450.417 38.2133C449.232 37.28 447.435 35.3725 446.785 34.4658C446.352 33.7652 445.699 32.485 445.46 31.9188C445.294 31.4779 445.036 30.6793 444.937 30.3245C444.865 30.0381 444.75 29.5149 444.705 29.2788C444.607 28.7408 444.559 28.2988 444.535 28.0231C444.508 27.73 444.496 27.4841 444.489 27.3077C444.476 26.9639 444.478 26.6886 444.481 26.5333C444.486 26.2216 444.501 25.9798 444.508 25.8814C444.516 25.7594 444.524 25.6632 444.529 25.608C444.544 25.4301 444.558 25.3202 444.551 25.3759C444.549 25.3955 444.543 25.4452 444.532 25.5318C444.486 25.8903 444.404 26.4987 444.31 27.1591C444.216 27.8227 444.125 28.4401 444.064 28.8265C444.05 28.9185 444.04 28.9763 444.035 29.0053C444.028 29.052 444.037 28.9904 444.061 28.8708C444.071 28.8174 444.103 28.6562 444.154 28.441C444.179 28.3331 444.226 28.1416 444.292 27.9026C444.327 27.7798 444.375 27.6112 444.439 27.4117C444.5 27.2225 444.598 26.9288 444.737 26.5751C444.857 26.2681 445.113 25.6418 445.528 24.894C445.741 24.5105 446.081 23.939 446.567 23.2918C446.778 23.0174 447.264 22.4349 447.541 22.1297C447.883 21.7758 448.683 21.038 449.144 20.6614C450.413 19.6691 452.762 18.1929 456.09 17.7914C457.384 17.696 460.006 17.871 461.31 18.1467C462.525 18.5241 464.716 19.5372 465.685 20.1456C466.475 20.7288 467.812 21.9396 468.368 22.5471C468.799 23.0728 469.521 24.0861 469.817 24.5655C470.471 25.6718 470.84 26.6459 471.038 27.2355C471.249 27.8649 471.378 28.3997 471.457 28.7687C471.538 29.1512 471.591 29.4787 471.626 29.7252C471.694 30.2049 471.723 30.5948 471.737 30.8287C471.766 31.2923 471.764 31.6552 471.762 31.8138L443.764 31.4986ZM469.199 17.881C467.783 16.1874 465.482 14.2344 462.15 13.2694C458.778 12.2928 455.709 12.7213 453.475 13.4903C451.39 14.2079 449.904 15.2509 449.057 15.9263C448.164 16.6385 447.498 17.3334 447.067 17.8177C446.231 18.7567 445.613 19.6625 445.289 20.1523C444.93 20.6926 444.601 21.2316 444.408 21.5477C443.803 22.5356 443.903 22.3299 444.181 21.9817C444.299 21.8347 445.142 20.7546 446.688 19.7093C448.191 18.6924 452.58 16.2876 458.243 18.088L449.758 44.7716C455.752 46.6774 460.498 44.1715 462.376 42.9014C464.295 41.6029 465.53 40.1177 466.05 39.4684C466.682 38.6771 467.183 37.9238 467.495 37.4402C467.814 36.9461 468.124 36.4356 468.293 36.1586C468.511 35.8021 468.588 35.6805 468.624 35.6271C468.693 35.5231 468.456 35.902 467.981 36.4356C467.73 36.7172 467.24 37.2397 466.516 37.8169C465.839 38.3571 464.516 39.3022 462.588 39.9658C460.51 40.681 457.591 41.0996 454.361 40.1641C451.171 39.2402 449.003 37.3791 447.713 35.8352L469.199 17.881ZM458.655 18.2263C453.919 16.5567 449.164 16.6455 444.874 17.7288L451.731 44.8764C451.696 44.8851 451.427 44.9484 450.969 44.9381C450.494 44.9275 449.931 44.8396 449.346 44.6333L458.655 18.2263ZM444.874 17.7288L426.687 22.3223L433.543 49.4698L451.731 44.8764L444.874 17.7288ZM426.685 22.3226C423.012 23.2508 419.169 25.0047 415.915 28.1127C412.585 31.2937 410.58 35.221 409.654 39.3037L436.961 45.4964C436.802 46.1953 436.317 47.3466 435.256 48.3596C434.272 49.2997 433.449 49.4935 433.544 49.4695L426.685 22.3226ZM409.696 39.1262C408.807 42.8204 409.071 46.4821 409.457 49.2236L437.183 45.3154C437.144 45.0413 437.123 44.8326 437.111 44.6835C437.099 44.5331 437.098 44.4636 437.098 44.4651C437.098 44.4674 437.098 44.4928 437.096 44.5397C437.094 44.5864 437.09 44.6592 437.08 44.7557C437.062 44.9417 437.019 45.2584 436.92 45.6739L409.696 39.1262ZM409.749 50.7097L410.517 53.7369L437.658 46.8563L436.891 43.8292L409.749 50.7097ZM411.082 55.4794C411.971 57.7094 413.357 60.8504 415.502 63.4462L437.085 45.6081C437.233 45.7876 437.347 45.9401 437.43 46.0553C437.512 46.1711 437.572 46.2617 437.609 46.3204C437.68 46.4324 437.693 46.4649 437.653 46.3891C437.616 46.3168 437.546 46.177 437.447 45.9556C437.348 45.7361 437.23 45.458 437.093 45.1138L411.082 55.4794ZM415.826 63.8242C418.58 66.9244 422.189 69.417 426.614 70.6457C430.96 71.8524 435.193 71.593 438.913 70.6532L432.054 43.5063C432.005 43.5187 432.823 43.3104 434.105 43.6665C435.467 44.0447 436.365 44.7848 436.761 45.2301L415.826 63.8242ZM438.912 70.6535L457.099 66.0601L450.243 38.9125L432.055 43.506L438.912 70.6535ZM457.103 66.0592C457.744 65.8971 457.459 66.0987 456.653 65.8733C456.271 65.7665 455.921 65.6021 455.64 65.4192C455.368 65.2427 455.255 65.1105 455.274 65.1322L476.271 46.6081C473.151 43.0722 469.113 40.2836 464.194 38.9078C459.353 37.5542 454.566 37.8194 450.239 38.9135L457.103 66.0592ZM455.015 64.8298C454.811 64.5855 454.721 64.4417 454.734 64.4618C454.742 64.4747 454.808 64.5783 454.928 64.7993C455.174 65.255 455.532 65.9902 455.995 67.0807L481.77 56.1416C480.526 53.2113 478.841 49.6852 476.53 46.9104L455.015 64.8298ZM455.311 65.0494L459.145 80.182L486.287 73.3054L482.454 58.1728L455.311 65.0494Z" fill="white" mask="url(#path-9-inside-5)"/>
<path d="M152.315 124.57V149H147.415V124.57H152.315ZM165.696 124.57C168.263 124.57 170.515 125.072 172.451 126.075C174.411 127.078 175.916 128.513 176.966 130.38C178.04 132.223 178.576 134.37 178.576 136.82C178.576 139.27 178.04 141.417 176.966 143.26C175.916 145.08 174.411 146.492 172.451 147.495C170.515 148.498 168.263 149 165.696 149H157.156V124.57H165.696ZM165.521 144.835C168.088 144.835 170.071 144.135 171.471 142.735C172.871 141.335 173.571 139.363 173.571 136.82C173.571 134.277 172.871 132.293 171.471 130.87C170.071 129.423 168.088 128.7 165.521 128.7H162.056V144.835H165.521ZM187.144 128.525V134.65H195.369V138.535H187.144V145.01H196.419V149H182.244V124.535H196.419V128.525H187.144ZM215.852 144.345H206.122L204.512 149H199.367L208.152 124.535H213.857L222.642 149H217.462L215.852 144.345ZM214.522 140.425L210.987 130.205L207.452 140.425H214.522ZM242.551 124.57V128.525H236.041V149H231.141V128.525H224.631V124.57H242.551ZM251.026 128.525V134.65H259.251V138.535H251.026V145.01H260.301V149H246.126V124.535H260.301V128.525H251.026ZM291.044 136.75C291.044 134.347 291.581 132.2 292.654 130.31C293.751 128.397 295.233 126.915 297.099 125.865C298.989 124.792 301.101 124.255 303.434 124.255C306.164 124.255 308.556 124.955 310.609 126.355C312.663 127.755 314.098 129.692 314.914 132.165H309.279C308.719 130.998 307.926 130.123 306.899 129.54C305.896 128.957 304.729 128.665 303.399 128.665C301.976 128.665 300.704 129.003 299.584 129.68C298.488 130.333 297.624 131.267 296.994 132.48C296.388 133.693 296.084 135.117 296.084 136.75C296.084 138.36 296.388 139.783 296.994 141.02C297.624 142.233 298.488 143.178 299.584 143.855C300.704 144.508 301.976 144.835 303.399 144.835C304.729 144.835 305.896 144.543 306.899 143.96C307.926 143.353 308.719 142.467 309.279 141.3H314.914C314.098 143.797 312.663 145.745 310.609 147.145C308.579 148.522 306.188 149.21 303.434 149.21C301.101 149.21 298.989 148.685 297.099 147.635C295.233 146.562 293.751 145.08 292.654 143.19C291.581 141.3 291.044 139.153 291.044 136.75ZM331.7 149L326.31 139.48H324V149H319.1V124.57H328.27C330.16 124.57 331.77 124.908 333.1 125.585C334.43 126.238 335.421 127.137 336.075 128.28C336.751 129.4 337.09 130.66 337.09 132.06C337.09 133.67 336.623 135.128 335.69 136.435C334.756 137.718 333.368 138.605 331.525 139.095L337.37 149H331.7ZM324 135.805H328.095C329.425 135.805 330.416 135.49 331.07 134.86C331.723 134.207 332.05 133.308 332.05 132.165C332.05 131.045 331.723 130.182 331.07 129.575C330.416 128.945 329.425 128.63 328.095 128.63H324V135.805ZM346.421 128.525V134.65H354.646V138.535H346.421V145.01H355.696V149H341.521V124.535H355.696V128.525H346.421ZM375.129 144.345H365.399L363.789 149H358.644L367.429 124.535H373.134L381.919 149H376.739L375.129 144.345ZM373.799 140.425L370.264 130.205L366.729 140.425H373.799ZM401.828 124.57V128.525H395.318V149H390.418V128.525H383.908V124.57H401.828ZM410.303 128.525V134.65H418.528V138.535H410.303V145.01H419.578V149H405.403V124.535H419.578V128.525H410.303ZM456.412 124.57V149H451.512V124.57H456.412ZM482.148 149H477.248L466.153 132.235V149H461.253V124.535H466.153L477.248 141.335V124.535H482.148V149ZM507.885 149H502.985L491.89 132.235V149H486.99V124.535H491.89L502.985 141.335V124.535H507.885V149ZM524.068 149.245C521.781 149.245 519.681 148.708 517.768 147.635C515.854 146.562 514.338 145.08 513.218 143.19C512.098 141.277 511.538 139.118 511.538 136.715C511.538 134.335 512.098 132.2 513.218 130.31C514.338 128.397 515.854 126.903 517.768 125.83C519.681 124.757 521.781 124.22 524.068 124.22C526.378 124.22 528.478 124.757 530.368 125.83C532.281 126.903 533.786 128.397 534.883 130.31C536.003 132.2 536.563 134.335 536.563 136.715C536.563 139.118 536.003 141.277 534.883 143.19C533.786 145.08 532.281 146.562 530.368 147.635C528.454 148.708 526.354 149.245 524.068 149.245ZM524.068 144.87C525.538 144.87 526.833 144.543 527.953 143.89C529.073 143.213 529.948 142.257 530.578 141.02C531.208 139.783 531.523 138.348 531.523 136.715C531.523 135.082 531.208 133.658 530.578 132.445C529.948 131.208 529.073 130.263 527.953 129.61C526.833 128.957 525.538 128.63 524.068 128.63C522.598 128.63 521.291 128.957 520.148 129.61C519.028 130.263 518.153 131.208 517.523 132.445C516.893 133.658 516.578 135.082 516.578 136.715C516.578 138.348 516.893 139.783 517.523 141.02C518.153 142.257 519.028 143.213 520.148 143.89C521.291 144.543 522.598 144.87 524.068 144.87ZM562.153 124.57L553.193 149H547.243L538.283 124.57H543.533L550.253 143.995L556.938 124.57H562.153ZM580.071 144.345H570.341L568.731 149H563.586L572.371 124.535H578.076L586.861 149H581.681L580.071 144.345ZM578.741 140.425L575.206 130.205L571.671 140.425H578.741ZM606.769 124.57V128.525H600.259V149H595.359V128.525H588.849V124.57H606.769ZM615.245 128.525V134.65H623.47V138.535H615.245V145.01H624.52V149H610.345V124.535H624.52V128.525H615.245Z" fill="white"/>
<path d="M278.554 153.235H273.619V120.72H278.554V153.235Z" fill="#FB0000"/>
<path d="M437.831 153.235H432.896V120.72H437.831V153.235Z" fill="#0066FF"/>
<path d="M617.823 45.8122L617.801 45.4626C621.988 43.1006 624.817 38.6102 624.819 33.4615C624.812 28.352 622.032 23.9009 617.895 21.5269V32.5508L611.047 36.5057L604.202 32.5491L604.195 21.5252C600.064 23.9026 597.281 28.3537 597.281 33.47C597.279 38.8302 600.354 43.4775 604.828 45.7542V45.8156L604.829 91.1782C604.831 92.9706 605.551 94.5976 606.728 95.7744C607.904 96.9511 609.53 97.6691 611.327 97.6759C614.912 97.6827 617.82 94.775 617.826 91.1765L617.823 45.8122ZM609.243 94.0502C608.278 93.0849 608.278 91.5125 609.246 90.5438C610.219 89.5717 611.788 89.5751 612.753 90.5404C613.725 91.5125 613.727 93.0798 612.755 94.0519C611.788 95.0223 610.217 95.024 609.243 94.0502Z" fill="white"/>
<path d="M529.228 57.172C529.228 41.136 517.144 29.888 501.944 29.888C486.82 29.888 474.508 41.136 474.508 57.172C474.508 73.208 486.82 84.532 501.944 84.532C517.068 84.532 529.228 73.208 529.228 57.172ZM487.808 57.172C487.808 47.672 493.28 41.668 501.944 41.668C510.456 41.668 516.004 47.672 516.004 57.172C516.004 66.52 510.456 72.676 501.944 72.676C493.28 72.676 487.808 66.52 487.808 57.172ZM534.634 57.248C534.634 73.208 545.73 84.38 561.462 84.38C574.154 84.38 583.73 77.312 586.77 65.76H572.482C570.278 70.32 566.25 72.6 561.31 72.6C553.33 72.6 547.858 66.672 547.858 57.248C547.858 47.824 553.33 41.896 561.31 41.896C566.25 41.896 570.278 44.176 572.482 48.736H586.77C583.73 37.184 574.154 30.04 561.462 30.04C545.73 30.04 534.634 41.288 534.634 57.248Z" fill="white"/>
<path d="M648.708 41.06V51.852H666.112V61.884H648.708V73.588H668.392V84H635.712V30.648H668.392V41.06H648.708ZM715.589 30.648V41.06H701.453V84H688.457V41.06H674.321V30.648H715.589ZM768.244 30.648L749.776 66.368V84H736.78V66.368L718.312 30.648H733.056L743.392 52.992L753.652 30.648H768.244Z" fill="white"/>
<path d="M311.17 41.085H302V70.887H311.17V41.085Z" stroke="white" stroke-width="4" stroke-linecap="round"/>
<path d="M306.098 31.1463C306.098 41.3902 306.098 41.3902 306.098 41.3902" stroke="white" stroke-width="4"/>
<path d="M305.073 32.1707C330.683 32.1707 330.683 32.1707 330.683 32.1707" stroke="white" stroke-width="4"/>
<path d="M305.073 81.3415C330.683 81.3415 330.683 81.3415 330.683 81.3415" stroke="white" stroke-width="4"/>
<path d="M306.097 71.3745C306.097 81.6184 306.097 81.6184 306.097 81.6184" stroke="white" stroke-width="4"/>
<circle cx="336.317" cy="32.6829" r="5.68293" stroke="white" stroke-width="4"/>
<circle cx="336.317" cy="81.8537" r="5.68293" stroke="white" stroke-width="4"/>
<path d="M32.908 47.976C32.908 52.156 30.628 54.664 25.764 54.664H17.708V41.44H25.764C30.628 41.44 32.908 44.024 32.908 47.976ZM4.712 30.648V84H17.708V63.86H20.824L31.92 84H46.588L34.276 62.872C42.484 60.44 46.132 54.132 46.132 47.444C46.132 38.172 39.596 30.648 26.524 30.648H4.712ZM107.186 57.172C107.186 41.136 95.1021 29.888 79.9021 29.888C64.7781 29.888 52.4661 41.136 52.4661 57.172C52.4661 73.208 64.7781 84.532 79.9021 84.532C95.0261 84.532 107.186 73.208 107.186 57.172ZM65.7661 57.172C65.7661 47.672 71.2381 41.668 79.9021 41.668C88.4141 41.668 93.9621 47.672 93.9621 57.172C93.9621 66.52 88.4141 72.676 79.9021 72.676C71.2381 72.676 65.7661 66.52 65.7661 57.172ZM144.208 67.736C144.208 71.536 141.7 73.512 137.368 73.512H127.792V61.732H137.216C141.548 61.732 144.208 63.936 144.208 67.736ZM142.916 46.684C142.916 50.332 140.56 52.232 136.304 52.232H127.792V41.06H136.304C140.56 41.06 142.916 43.036 142.916 46.684ZM157.356 69.484C157.356 63.404 153.328 57.932 147.096 56.64C152.264 55.12 156.14 50.94 156.14 44.48C156.14 36.044 149.68 30.648 138.812 30.648H114.796V84H139.648C150.896 84 157.356 78.3 157.356 69.484Z" fill="white"/>
<path d="M368.016 84.532C364.115 84.532 360.619 83.8987 357.528 82.632C354.437 81.3653 351.955 79.4907 350.08 77.008C348.256 74.5253 347.293 71.536 347.192 68.04H361.024C361.227 70.016 361.911 71.536 363.076 72.6C364.241 73.6133 365.761 74.12 367.636 74.12C369.561 74.12 371.081 73.6893 372.196 72.828C373.311 71.916 373.868 70.6747 373.868 69.104C373.868 67.7867 373.412 66.6973 372.5 65.836C371.639 64.9747 370.549 64.2653 369.232 63.708C367.965 63.1507 366.141 62.5173 363.76 61.808C360.315 60.744 357.503 59.68 355.324 58.616C353.145 57.552 351.271 55.9813 349.7 53.904C348.129 51.8267 347.344 49.116 347.344 45.772C347.344 40.8067 349.143 36.9307 352.74 34.144C356.337 31.3067 361.024 29.888 366.8 29.888C372.677 29.888 377.415 31.3067 381.012 34.144C384.609 36.9307 386.535 40.832 386.788 45.848H372.728C372.627 44.1253 371.993 42.7827 370.828 41.82C369.663 40.8067 368.168 40.3 366.344 40.3C364.773 40.3 363.507 40.7307 362.544 41.592C361.581 42.4027 361.1 43.5933 361.1 45.164C361.1 46.8867 361.911 48.2293 363.532 49.192C365.153 50.1547 367.687 51.1933 371.132 52.308C374.577 53.4733 377.364 54.588 379.492 55.652C381.671 56.716 383.545 58.2613 385.116 60.288C386.687 62.3147 387.472 64.924 387.472 68.116C387.472 71.156 386.687 73.9173 385.116 76.4C383.596 78.8827 381.367 80.8587 378.428 82.328C375.489 83.7973 372.019 84.532 368.016 84.532Z" fill="white"/>
<g clip-path="url(#clip0)">
<path d="M153 24.0189C153.053 23.8377 153.101 23.6557 153.162 23.4764C153.614 22.1294 154.553 21.3134 155.946 21.1154C157.283 20.9254 158.413 21.4031 159.191 22.5192C159.977 23.646 160.046 24.873 159.388 26.0824C159.18 26.4633 159.262 26.6231 159.551 26.8699C162.438 29.3445 165.315 31.8315 168.194 34.3159C168.327 34.4313 168.458 34.5494 168.557 34.6364C167.889 35.3023 167.237 35.9532 166.556 36.6315C163.895 33.5425 161.183 30.3967 158.507 27.2908C157.939 27.4844 157.427 27.7463 156.888 27.8262C155.124 28.0864 153.59 27.0404 153.114 25.3232C153.083 25.2122 153.038 25.1048 153 24.9956C153 24.6697 153 24.3447 153 24.0189Z" fill="white"/>
<path d="M192.909 67.6264C184.83 67.6264 176.75 67.6521 168.671 67.6042C167.127 67.5953 165.585 67.2988 164.043 67.1292C163.484 67.0679 162.925 67.0066 162.371 66.9178C161.47 66.7731 160.826 66.0442 160.822 65.1323C160.812 62.3656 160.813 59.598 160.822 56.8313C160.825 55.8883 161.499 55.1309 162.438 55.012C164.184 54.7909 165.932 54.5822 167.681 54.3887C168.023 54.3505 168.186 54.2324 168.28 53.8834C168.783 52.0029 169.534 50.2191 170.493 48.5267C170.651 48.247 170.625 48.0721 170.431 47.8306C169.368 46.5023 168.324 45.1589 167.271 43.8226C166.523 42.8726 166.57 41.9483 167.422 41.0932C169.272 39.2393 171.123 37.3862 172.976 35.5358C173.872 34.6417 174.786 34.5858 175.777 35.3618C177.117 36.4104 178.46 37.4564 179.786 38.5218C180.026 38.7145 180.193 38.711 180.447 38.5671C182.154 37.6038 183.952 36.8526 185.844 36.3385C186.147 36.2559 186.274 36.1263 186.309 35.8066C186.5 34.0726 186.712 32.3403 186.927 30.608C187.058 29.546 187.78 28.905 188.844 28.9032C191.552 28.8988 194.259 28.8988 196.967 28.9032C198.029 28.905 198.754 29.546 198.889 30.6089C199.107 32.3403 199.319 34.0717 199.516 35.8058C199.549 36.0979 199.643 36.2408 199.94 36.3225C201.859 36.8482 203.689 37.602 205.416 38.5911C205.677 38.7403 205.829 38.6781 206.036 38.5139C207.391 37.4368 208.754 36.3696 210.117 35.3023C211.015 34.6 211.973 34.6559 212.784 35.4639C214.661 37.3329 216.536 39.2038 218.407 41.0772C219.254 41.9243 219.301 42.8601 218.554 43.8137C217.495 45.1642 216.439 46.5174 215.368 47.8581C215.192 48.0783 215.184 48.2364 215.322 48.4806C216.282 50.1898 217.036 51.9869 217.551 53.879C217.646 54.2297 217.819 54.3443 218.153 54.3816C219.858 54.5742 221.561 54.7802 223.263 54.9933C224.379 55.1336 225.009 55.8501 225.01 56.9671C225.012 59.645 225.013 62.3238 225.01 65.0018C225.008 66.0681 224.378 66.7731 223.317 66.9338C219.888 67.4524 216.447 67.677 212.974 67.6442C206.287 67.5802 199.598 67.6255 192.91 67.6255C192.909 67.6246 192.909 67.6255 192.909 67.6264ZM186.142 51.9025C186.073 51.7614 186.049 51.6513 185.981 51.582C185.538 51.1256 185.103 50.6586 184.623 50.2439C184.506 50.1436 184.196 50.1578 184.038 50.2404C183.754 50.3887 183.532 50.6506 183.257 50.8202C183.135 50.8957 182.937 50.9036 182.79 50.8708C181.918 50.6728 181.352 50.2137 181.465 49.2184C181.467 49.2042 181.459 49.19 181.457 49.1749C181.423 48.8721 181.245 48.7327 180.949 48.7318C180.372 48.7309 179.795 48.7345 179.218 48.7318C178.897 48.7309 178.723 48.8917 178.684 49.2042C178.645 49.5123 178.629 49.8248 178.563 50.1267C178.533 50.2581 178.43 50.4109 178.314 50.4801C177.551 50.9365 176.82 51.0768 176.163 50.2652C175.95 50.0033 175.668 50.0628 175.43 50.307C175.039 50.7101 174.64 51.107 174.239 51.5012C174.009 51.7267 173.989 51.9567 174.189 52.208C174.374 52.4397 174.548 52.6794 174.743 52.9014C174.896 53.0763 174.894 53.2184 174.824 53.4519C174.566 54.3079 174.14 54.8681 173.134 54.7554C172.853 54.7243 172.684 54.9427 172.686 55.249C172.689 55.8413 172.69 56.4326 172.69 57.0248C172.69 57.3312 172.853 57.4821 173.146 57.5176C173.47 57.5567 173.796 57.5851 174.112 57.6544C174.229 57.6801 174.358 57.7884 174.422 57.895C174.882 58.6577 175.02 59.3858 174.211 60.0428C173.947 60.2568 174.01 60.5392 174.252 60.7762C174.654 61.1696 175.051 61.5673 175.447 61.966C175.674 62.1942 175.913 62.196 176.161 62.0069C176.396 61.8275 176.636 61.6526 176.856 61.4564C177.038 61.2948 177.189 61.3329 177.412 61.3924C178.281 61.6233 178.765 62.0956 178.691 63.0528C178.668 63.3511 178.876 63.5349 179.207 63.5323C179.784 63.5278 180.362 63.5296 180.939 63.5358C181.267 63.5394 181.424 63.3662 181.463 63.0572C181.501 62.7642 181.561 62.4712 181.572 62.1773C181.581 61.9252 181.718 61.855 181.917 61.7432C182.69 61.3116 183.373 61.2504 183.997 62.0077C184.194 62.2466 184.473 62.2093 184.7 61.9829C185.108 61.5753 185.516 61.1669 185.924 60.7585C186.151 60.5321 186.16 60.2985 185.955 60.0499C185.758 59.8093 185.546 59.5767 185.386 59.3139C185.312 59.1922 185.304 58.996 185.337 58.8495C185.534 57.9705 186.011 57.4448 186.997 57.5176C187.338 57.5425 187.476 57.2957 187.465 56.9556C187.451 56.5418 187.465 56.1272 187.465 55.7125C187.466 54.8193 187.468 54.7713 186.596 54.7136C185.997 54.6746 185.748 54.4313 185.511 53.8852C185.258 53.3054 185.281 52.9174 185.725 52.4983C185.901 52.3323 186.01 52.097 186.142 51.9025ZM213.144 56.1396C213.144 56.0659 213.143 55.9913 213.144 55.9176C213.163 54.6142 213.137 54.8273 212.039 54.6648C211.981 54.6559 211.92 54.6435 211.863 54.6488C211.555 54.6799 211.469 54.4881 211.328 54.2475C210.873 53.4715 210.909 52.8171 211.612 52.2097C211.85 52.0038 211.809 51.7347 211.581 51.5083C211.172 51.1016 210.764 50.6941 210.358 50.2839C210.129 50.0539 209.897 50.0513 209.65 50.2519C209.421 50.4384 209.18 50.6124 208.959 50.8086C208.779 50.9685 208.627 50.9321 208.403 50.8717C207.54 50.6382 207.046 50.1765 207.126 49.2157C207.15 48.9121 206.94 48.7309 206.613 48.7318C206.036 48.7327 205.46 48.7301 204.883 48.7309C204.588 48.7309 204.41 48.8677 204.371 49.1696C204.332 49.4777 204.27 49.784 204.253 50.093C204.24 50.3398 204.11 50.4144 203.911 50.5289C203.135 50.9747 202.454 51.004 201.834 50.259C201.634 50.0202 201.36 50.0557 201.132 50.2839C200.726 50.6923 200.317 51.0999 199.91 51.5083C199.684 51.7347 199.674 51.9691 199.875 52.2177C200.061 52.4477 200.231 52.6919 200.429 52.9103C200.593 53.0923 200.558 53.2424 200.493 53.4652C200.249 54.3105 199.82 54.8486 198.839 54.75C198.538 54.7198 198.358 54.9321 198.361 55.2624C198.367 55.8395 198.37 56.4157 198.364 56.9929C198.36 57.3214 198.518 57.4812 198.834 57.5176C199.143 57.5531 199.456 57.5753 199.754 57.6526C199.893 57.689 200.038 57.8186 200.118 57.9447C200.605 58.7048 200.656 59.4257 199.874 60.0437C199.863 60.0526 199.848 60.0677 199.848 60.0792C199.857 60.2932 199.784 60.5773 199.893 60.7079C200.271 61.1598 200.712 61.5585 201.132 61.9758C201.36 62.2022 201.603 62.1924 201.847 62.0015C202.08 61.8195 202.296 61.6091 202.549 61.4617C202.685 61.3827 202.893 61.364 203.051 61.3978C203.933 61.5895 204.459 62.0664 204.376 63.0572C204.347 63.3938 204.597 63.5438 204.934 63.5367C205.289 63.5287 205.645 63.5438 205.999 63.5332C206.881 63.5065 207.117 63.772 207.19 62.5112C207.195 62.4375 207.23 62.3647 207.225 62.2928C207.204 61.958 207.406 61.863 207.674 61.7032C208.438 61.2486 209.049 61.3383 209.631 61.9918C209.852 62.2395 210.13 62.2102 210.372 61.9687C210.769 61.5709 211.167 61.174 211.566 60.778C211.806 60.54 211.855 60.2586 211.596 60.0402C210.869 59.4284 210.895 58.7642 211.337 58.0015C211.46 57.7884 211.548 57.6712 211.808 57.6348C213.259 57.4297 213.139 57.7041 213.144 56.1396Z" fill="white"/>
<path d="M215.555 70.0761C215.074 71.0564 214.643 71.9425 214.207 72.8269C214.026 73.1945 213.671 73.5674 213.693 73.919C213.715 74.2511 214.121 74.5627 214.366 74.8761C215.406 76.2044 216.45 77.5292 217.49 78.8575C217.891 79.3698 217.878 79.5731 217.416 80.0366C215.595 81.8577 213.774 83.6779 211.952 85.4972C211.507 85.9412 211.303 85.9527 210.81 85.5656C209.25 84.3421 207.685 83.1248 206.137 81.887C205.896 81.6943 205.735 81.6952 205.481 81.8462C203.409 83.0786 201.21 84.0127 198.865 84.5836C198.518 84.6679 198.365 84.8109 198.324 85.1882C198.118 87.0999 197.873 89.008 197.651 90.9179C197.566 91.6513 197.446 91.7703 196.702 91.7703C194.142 91.7703 191.582 91.7711 189.022 91.7703C188.399 91.7703 188.244 91.6255 188.172 91.0102C187.934 89.0124 187.698 87.0155 187.442 85.0204C187.423 84.8775 187.26 84.6706 187.127 84.6386C184.679 84.0384 182.382 83.0821 180.228 81.7778C179.988 81.6322 179.856 81.7423 179.689 81.8746C178.131 83.1017 176.572 84.3261 175.012 85.5505C174.492 85.9589 174.306 85.9483 173.839 85.4812C172.03 83.6708 170.22 81.8604 168.411 80.0491C167.927 79.5643 167.916 79.3796 168.338 78.8406C169.544 77.3046 170.746 75.764 171.966 74.2395C172.177 73.9758 172.169 73.7911 172.014 73.5017C171.491 72.525 171.008 71.5261 170.514 70.5343C170.451 70.4082 170.414 70.2697 170.342 70.0726C170.572 70.0726 170.731 70.0726 170.89 70.0726C173.17 70.0726 175.448 70.0797 177.727 70.0655C178.062 70.0637 178.251 70.1676 178.442 70.4491C181.389 74.8042 185.448 77.5203 190.673 78.1268C197.697 78.9418 203.278 76.2959 207.35 70.5094C207.572 70.1933 207.784 70.0673 208.171 70.0708C210.435 70.0903 212.699 70.0806 214.963 70.0797C215.119 70.0761 215.275 70.0761 215.555 70.0761Z" fill="white"/>
<path d="M226.682 26.5236C225.411 24.5498 226.204 22.6382 227.36 21.7734C228.735 20.7452 230.659 20.8784 231.858 22.1037C233.045 23.3156 233.146 25.2264 232.112 26.5707C231.182 27.7791 229.241 28.4291 227.388 27.2171C224.675 30.3611 221.955 33.5132 219.259 36.6395C218.597 35.9709 217.957 35.3227 217.271 34.6293C220.362 31.9674 223.514 29.253 226.682 26.5236Z" fill="white"/>
<path d="M180.093 59.8377C178.061 59.8502 176.381 58.1916 176.373 56.1627C176.365 54.1356 178.031 52.4566 180.06 52.4459C182.088 52.4353 183.761 54.0921 183.779 56.1298C183.796 58.1587 182.14 59.8253 180.093 59.8377Z" fill="white"/>
<path d="M205.741 59.8377C203.698 59.8297 202.046 58.1694 202.051 56.1325C202.057 54.1045 203.739 52.4344 205.765 52.4468C207.803 52.4593 209.457 54.1232 209.455 56.1592C209.453 58.1889 207.78 59.8457 205.741 59.8377Z" fill="white"/>
</g>
<path d="M227.824 40.06H241.96V83H254.956V40.06H269.092V29.648H227.824V40.06ZM275.994 83H288.99V29.648H275.994V83Z" fill="white"/>
<defs>
<clipPath id="clip0">
<rect width="80" height="71.0322" fill="white" transform="translate(153 28)"/>
</clipPath>
</defs>
</svg>
