<svg width="769" height="167" viewBox="0 0 769 167" fill="none" xmlns="http://www.w3.org/2000/svg">
<path d="M150.315 128.57V153H145.415V128.57H150.315ZM163.696 128.57C166.263 128.57 168.515 129.072 170.451 130.075C172.411 131.078 173.916 132.513 174.966 134.38C176.04 136.223 176.576 138.37 176.576 140.82C176.576 143.27 176.04 145.417 174.966 147.26C173.916 149.08 172.411 150.492 170.451 151.495C168.515 152.498 166.263 153 163.696 153H155.156V128.57H163.696ZM163.521 148.835C166.088 148.835 168.071 148.135 169.471 146.735C170.871 145.335 171.571 143.363 171.571 140.82C171.571 138.277 170.871 136.293 169.471 134.87C168.071 133.423 166.088 132.7 163.521 132.7H160.056V148.835H163.521ZM185.144 132.525V138.65H193.369V142.535H185.144V149.01H194.419V153H180.244V128.535H194.419V132.525H185.144ZM213.852 148.345H204.122L202.512 153H197.367L206.152 128.535H211.857L220.642 153H215.462L213.852 148.345ZM212.522 144.425L208.987 134.205L205.452 144.425H212.522ZM240.551 128.57V132.525H234.041V153H229.141V132.525H222.631V128.57H240.551ZM249.026 132.525V138.65H257.251V142.535H249.026V149.01H258.301V153H244.126V128.535H258.301V132.525H249.026ZM289.044 140.75C289.044 138.347 289.581 136.2 290.654 134.31C291.751 132.397 293.233 130.915 295.099 129.865C296.989 128.792 299.101 128.255 301.434 128.255C304.164 128.255 306.556 128.955 308.609 130.355C310.663 131.755 312.098 133.692 312.914 136.165H307.279C306.719 134.998 305.926 134.123 304.899 133.54C303.896 132.957 302.729 132.665 301.399 132.665C299.976 132.665 298.704 133.003 297.584 133.68C296.488 134.333 295.624 135.267 294.994 136.48C294.388 137.693 294.084 139.117 294.084 140.75C294.084 142.36 294.388 143.783 294.994 145.02C295.624 146.233 296.488 147.178 297.584 147.855C298.704 148.508 299.976 148.835 301.399 148.835C302.729 148.835 303.896 148.543 304.899 147.96C305.926 147.353 306.719 146.467 307.279 145.3H312.914C312.098 147.797 310.663 149.745 308.609 151.145C306.579 152.522 304.188 153.21 301.434 153.21C299.101 153.21 296.989 152.685 295.099 151.635C293.233 150.562 291.751 149.08 290.654 147.19C289.581 145.3 289.044 143.153 289.044 140.75ZM329.7 153L324.31 143.48H322V153H317.1V128.57H326.27C328.16 128.57 329.77 128.908 331.1 129.585C332.43 130.238 333.421 131.137 334.075 132.28C334.751 133.4 335.09 134.66 335.09 136.06C335.09 137.67 334.623 139.128 333.69 140.435C332.756 141.718 331.368 142.605 329.525 143.095L335.37 153H329.7ZM322 139.805H326.095C327.425 139.805 328.416 139.49 329.07 138.86C329.723 138.207 330.05 137.308 330.05 136.165C330.05 135.045 329.723 134.182 329.07 133.575C328.416 132.945 327.425 132.63 326.095 132.63H322V139.805ZM344.421 132.525V138.65H352.646V142.535H344.421V149.01H353.696V153H339.521V128.535H353.696V132.525H344.421ZM373.129 148.345H363.399L361.789 153H356.644L365.429 128.535H371.134L379.919 153H374.739L373.129 148.345ZM371.799 144.425L368.264 134.205L364.729 144.425H371.799ZM399.828 128.57V132.525H393.318V153H388.418V132.525H381.908V128.57H399.828ZM408.303 132.525V138.65H416.528V142.535H408.303V149.01H417.578V153H403.403V128.535H417.578V132.525H408.303ZM454.412 128.57V153H449.512V128.57H454.412ZM480.148 153H475.248L464.153 136.235V153H459.253V128.535H464.153L475.248 145.335V128.535H480.148V153ZM505.885 153H500.985L489.89 136.235V153H484.99V128.535H489.89L500.985 145.335V128.535H505.885V153ZM522.068 153.245C519.781 153.245 517.681 152.708 515.768 151.635C513.854 150.562 512.338 149.08 511.218 147.19C510.098 145.277 509.538 143.118 509.538 140.715C509.538 138.335 510.098 136.2 511.218 134.31C512.338 132.397 513.854 130.903 515.768 129.83C517.681 128.757 519.781 128.22 522.068 128.22C524.378 128.22 526.478 128.757 528.368 129.83C530.281 130.903 531.786 132.397 532.883 134.31C534.003 136.2 534.563 138.335 534.563 140.715C534.563 143.118 534.003 145.277 532.883 147.19C531.786 149.08 530.281 150.562 528.368 151.635C526.454 152.708 524.354 153.245 522.068 153.245ZM522.068 148.87C523.538 148.87 524.833 148.543 525.953 147.89C527.073 147.213 527.948 146.257 528.578 145.02C529.208 143.783 529.523 142.348 529.523 140.715C529.523 139.082 529.208 137.658 528.578 136.445C527.948 135.208 527.073 134.263 525.953 133.61C524.833 132.957 523.538 132.63 522.068 132.63C520.598 132.63 519.291 132.957 518.148 133.61C517.028 134.263 516.153 135.208 515.523 136.445C514.893 137.658 514.578 139.082 514.578 140.715C514.578 142.348 514.893 143.783 515.523 145.02C516.153 146.257 517.028 147.213 518.148 147.89C519.291 148.543 520.598 148.87 522.068 148.87ZM560.153 128.57L551.193 153H545.243L536.283 128.57H541.533L548.253 147.995L554.938 128.57H560.153ZM578.071 148.345H568.341L566.731 153H561.586L570.371 128.535H576.076L584.861 153H579.681L578.071 148.345ZM576.741 144.425L573.206 134.205L569.671 144.425H576.741ZM604.769 128.57V132.525H598.259V153H593.359V132.525H586.849V128.57H604.769ZM613.245 132.525V138.65H621.47V142.535H613.245V149.01H622.52V153H608.345V128.535H622.52V132.525H613.245Z" fill="white"/>
<path d="M276.554 157.235H271.619V124.72H276.554V157.235Z" fill="#FB0000"/>
<path d="M435.831 157.235H430.896V124.72H435.831V157.235Z" fill="#0066FF"/>
<path d="M617.823 45.8122L617.801 45.4626C621.988 43.1006 624.817 38.6102 624.819 33.4615C624.812 28.352 622.032 23.9009 617.895 21.5269L617.895 32.5508L611.047 36.5057L604.202 32.5491L604.195 21.5252C600.064 23.9026 597.281 28.3537 597.281 33.47C597.279 38.8302 600.354 43.4775 604.828 45.7542L604.828 45.8156L604.829 91.1782C604.831 92.9706 605.551 94.5976 606.728 95.7744C607.904 96.9511 609.53 97.6691 611.327 97.6759C614.912 97.6827 617.82 94.775 617.826 91.1765L617.823 45.8122ZM609.243 94.0502C608.278 93.0849 608.278 91.5125 609.246 90.5438C610.219 89.5717 611.788 89.5751 612.753 90.5404C613.725 91.5125 613.727 93.0798 612.755 94.0519C611.788 95.0223 610.217 95.024 609.243 94.0502Z" fill="white"/>
<path d="M450.016 84.532C446.115 84.532 442.619 83.8987 439.528 82.632C436.437 81.3653 433.955 79.4907 432.08 77.008C430.256 74.5253 429.293 71.536 429.192 68.04H443.024C443.227 70.016 443.911 71.536 445.076 72.6C446.241 73.6133 447.761 74.12 449.636 74.12C451.561 74.12 453.081 73.6893 454.196 72.828C455.311 71.916 455.868 70.6747 455.868 69.104C455.868 67.7867 455.412 66.6973 454.5 65.836C453.639 64.9747 452.549 64.2653 451.232 63.708C449.965 63.1507 448.141 62.5173 445.76 61.808C442.315 60.744 439.503 59.68 437.324 58.616C435.145 57.552 433.271 55.9813 431.7 53.904C430.129 51.8267 429.344 49.116 429.344 45.772C429.344 40.8067 431.143 36.9307 434.74 34.144C438.337 31.3067 443.024 29.888 448.8 29.888C454.677 29.888 459.415 31.3067 463.012 34.144C466.609 36.9307 468.535 40.832 468.788 45.848H454.728C454.627 44.1253 453.993 42.7827 452.828 41.82C451.663 40.8067 450.168 40.3 448.344 40.3C446.773 40.3 445.507 40.7307 444.544 41.592C443.581 42.4027 443.1 43.5933 443.1 45.164C443.1 46.8867 443.911 48.2293 445.532 49.192C447.153 50.1547 449.687 51.1933 453.132 52.308C456.577 53.4733 459.364 54.588 461.492 55.652C463.671 56.716 465.545 58.2613 467.116 60.288C468.687 62.3147 469.472 64.924 469.472 68.116C469.472 71.156 468.687 73.9173 467.116 76.4C465.596 78.8827 463.367 80.8587 460.428 82.328C457.489 83.7973 454.019 84.532 450.016 84.532ZM503.082 84.532C498.066 84.532 493.455 83.3667 489.25 81.036C485.095 78.7053 481.776 75.4627 479.294 71.308C476.862 67.1027 475.646 62.3907 475.646 57.172C475.646 51.9533 476.862 47.2667 479.294 43.112C481.776 38.9573 485.095 35.7147 489.25 33.384C493.455 31.0533 498.066 29.888 503.082 29.888C508.098 29.888 512.683 31.0533 516.838 33.384C521.043 35.7147 524.336 38.9573 526.718 43.112C529.15 47.2667 530.366 51.9533 530.366 57.172C530.366 62.3907 529.15 67.1027 526.718 71.308C524.286 75.4627 520.992 78.7053 516.838 81.036C512.683 83.3667 508.098 84.532 503.082 84.532ZM503.082 72.676C507.338 72.676 510.732 71.2573 513.266 68.42C515.85 65.5827 517.142 61.8333 517.142 57.172C517.142 52.46 515.85 48.7107 513.266 45.924C510.732 43.0867 507.338 41.668 503.082 41.668C498.775 41.668 495.33 43.0613 492.746 45.848C490.212 48.6347 488.946 52.4093 488.946 57.172C488.946 61.884 490.212 65.6587 492.746 68.496C495.33 71.2827 498.775 72.676 503.082 72.676ZM535.772 57.248C535.772 51.9787 536.912 47.292 539.192 43.188C541.472 39.0333 544.639 35.816 548.692 33.536C552.796 31.2053 557.432 30.04 562.6 30.04C568.933 30.04 574.355 31.712 578.864 35.056C583.373 38.4 586.388 42.96 587.908 48.736H573.62C572.556 46.5067 571.036 44.8093 569.06 43.644C567.135 42.4787 564.931 41.896 562.448 41.896C558.445 41.896 555.203 43.2893 552.72 46.076C550.237 48.8627 548.996 52.5867 548.996 57.248C548.996 61.9093 550.237 65.6333 552.72 68.42C555.203 71.2067 558.445 72.6 562.448 72.6C564.931 72.6 567.135 72.0173 569.06 70.852C571.036 69.6867 572.556 67.9893 573.62 65.76H587.908C586.388 71.536 583.373 76.096 578.864 79.44C574.355 82.7333 568.933 84.38 562.6 84.38C557.432 84.38 552.796 83.24 548.692 80.96C544.639 78.6293 541.472 75.412 539.192 71.308C536.912 67.204 535.772 62.5173 535.772 57.248Z" fill="white"/>
<path d="M648.708 41.06V51.852H666.112V61.884H648.708V73.588H668.392V84H635.712V30.648H668.392V41.06H648.708ZM715.589 30.648V41.06H701.453V84H688.457V41.06H674.321V30.648H715.589ZM768.244 30.648L749.776 66.368V84H736.78V66.368L718.312 30.648H733.056L743.392 52.992L753.652 30.648H768.244Z" fill="white"/>
<path d="M311.17 41.085H302V70.887H311.17V41.085Z" stroke="white" stroke-width="4" stroke-linecap="round"/>
<path d="M306.098 31.1463C306.098 41.3902 306.098 41.3902 306.098 41.3902" stroke="white" stroke-width="4"/>
<path d="M305.073 32.1707C330.683 32.1707 330.683 32.1707 330.683 32.1707" stroke="white" stroke-width="4"/>
<path d="M305.073 81.3415C330.683 81.3415 330.683 81.3415 330.683 81.3415" stroke="white" stroke-width="4"/>
<path d="M306.097 71.3745C306.097 81.6184 306.097 81.6184 306.097 81.6184" stroke="white" stroke-width="4"/>
<circle cx="336.317" cy="32.6829" r="5.68293" stroke="white" stroke-width="4"/>
<circle cx="336.317" cy="81.8537" r="5.68293" stroke="white" stroke-width="4"/>
<path d="M31.92 84L20.824 63.86H17.708V84H4.712V30.648H26.524C30.7293 30.648 34.3013 31.3827 37.24 32.852C40.2293 34.3213 42.4587 36.348 43.928 38.932C45.3973 41.4653 46.132 44.3027 46.132 47.444C46.132 50.9907 45.1187 54.1573 43.092 56.944C41.116 59.7307 38.1773 61.7067 34.276 62.872L46.588 84H31.92ZM17.708 54.664H25.764C28.1453 54.664 29.9187 54.0813 31.084 52.916C32.3 51.7507 32.908 50.104 32.908 47.976C32.908 45.9493 32.3 44.3533 31.084 43.188C29.9187 42.0227 28.1453 41.44 25.764 41.44H17.708V54.664ZM79.9021 84.532C74.8861 84.532 70.2755 83.3667 66.0701 81.036C61.9155 78.7053 58.5968 75.4627 56.1141 71.308C53.6821 67.1027 52.4661 62.3907 52.4661 57.172C52.4661 51.9533 53.6821 47.2667 56.1141 43.112C58.5968 38.9573 61.9155 35.7147 66.0701 33.384C70.2755 31.0533 74.8861 29.888 79.9021 29.888C84.9181 29.888 89.5035 31.0533 93.6581 33.384C97.8635 35.7147 101.157 38.9573 103.538 43.112C105.97 47.2667 107.186 51.9533 107.186 57.172C107.186 62.3907 105.97 67.1027 103.538 71.308C101.106 75.4627 97.8128 78.7053 93.6581 81.036C89.5035 83.3667 84.9181 84.532 79.9021 84.532ZM79.9021 72.676C84.1581 72.676 87.5528 71.2573 90.0861 68.42C92.6701 65.5827 93.9621 61.8333 93.9621 57.172C93.9621 52.46 92.6701 48.7107 90.0861 45.924C87.5528 43.0867 84.1581 41.668 79.9021 41.668C75.5955 41.668 72.1501 43.0613 69.5661 45.848C67.0328 48.6347 65.7661 52.4093 65.7661 57.172C65.7661 61.884 67.0328 65.6587 69.5661 68.496C72.1501 71.2827 75.5955 72.676 79.9021 72.676ZM147.096 56.64C150.187 57.2987 152.67 58.844 154.544 61.276C156.419 63.6573 157.356 66.3933 157.356 69.484C157.356 73.9427 155.786 77.4893 152.644 80.124C149.554 82.708 145.222 84 139.648 84H114.796V30.648H138.812C144.234 30.648 148.464 31.8893 151.504 34.372C154.595 36.8547 156.14 40.224 156.14 44.48C156.14 47.6213 155.304 50.2307 153.632 52.308C152.011 54.3853 149.832 55.8293 147.096 56.64ZM127.792 52.232H136.304C138.432 52.232 140.054 51.776 141.168 50.864C142.334 49.9013 142.916 48.508 142.916 46.684C142.916 44.86 142.334 43.4667 141.168 42.504C140.054 41.5413 138.432 41.06 136.304 41.06H127.792V52.232ZM137.368 73.512C139.547 73.512 141.219 73.0307 142.384 72.068C143.6 71.0547 144.208 69.6107 144.208 67.736C144.208 65.8613 143.575 64.392 142.308 63.328C141.092 62.264 139.395 61.732 137.216 61.732H127.792V73.512H137.368ZM190.506 84.532C185.49 84.532 180.879 83.3667 176.674 81.036C172.519 78.7053 169.201 75.4627 166.718 71.308C164.286 67.1027 163.07 62.3907 163.07 57.172C163.07 51.9533 164.286 47.2667 166.718 43.112C169.201 38.9573 172.519 35.7147 176.674 33.384C180.879 31.0533 185.49 29.888 190.506 29.888C195.522 29.888 200.107 31.0533 204.262 33.384C208.467 35.7147 211.761 38.9573 214.142 43.112C216.574 47.2667 217.79 51.9533 217.79 57.172C217.79 62.3907 216.574 67.1027 214.142 71.308C211.71 75.4627 208.417 78.7053 204.262 81.036C200.107 83.3667 195.522 84.532 190.506 84.532ZM190.506 72.676C194.762 72.676 198.157 71.2573 200.69 68.42C203.274 65.5827 204.566 61.8333 204.566 57.172C204.566 52.46 203.274 48.7107 200.69 45.924C198.157 43.0867 194.762 41.668 190.506 41.668C186.199 41.668 182.754 43.0613 180.17 45.848C177.637 48.6347 176.37 52.4093 176.37 57.172C176.37 61.884 177.637 65.6587 180.17 68.496C182.754 71.2827 186.199 72.676 190.506 72.676ZM263.78 30.648V41.06H249.644V84H236.648V41.06H222.512V30.648H263.78ZM283.678 30.648V84H270.682V30.648H283.678Z" fill="white"/>
<path d="M368.016 84.532C364.115 84.532 360.619 83.8987 357.528 82.632C354.437 81.3653 351.955 79.4907 350.08 77.008C348.256 74.5253 347.293 71.536 347.192 68.04H361.024C361.227 70.016 361.911 71.536 363.076 72.6C364.241 73.6133 365.761 74.12 367.636 74.12C369.561 74.12 371.081 73.6893 372.196 72.828C373.311 71.916 373.868 70.6747 373.868 69.104C373.868 67.7867 373.412 66.6973 372.5 65.836C371.639 64.9747 370.549 64.2653 369.232 63.708C367.965 63.1507 366.141 62.5173 363.76 61.808C360.315 60.744 357.503 59.68 355.324 58.616C353.145 57.552 351.271 55.9813 349.7 53.904C348.129 51.8267 347.344 49.116 347.344 45.772C347.344 40.8067 349.143 36.9307 352.74 34.144C356.337 31.3067 361.024 29.888 366.8 29.888C372.677 29.888 377.415 31.3067 381.012 34.144C384.609 36.9307 386.535 40.832 386.788 45.848H372.728C372.627 44.1253 371.993 42.7827 370.828 41.82C369.663 40.8067 368.168 40.3 366.344 40.3C364.773 40.3 363.507 40.7307 362.544 41.592C361.581 42.4027 361.1 43.5933 361.1 45.164C361.1 46.8867 361.911 48.2293 363.532 49.192C365.153 50.1547 367.687 51.1933 371.132 52.308C374.577 53.4733 377.364 54.588 379.492 55.652C381.671 56.716 383.545 58.2613 385.116 60.288C386.687 62.3147 387.472 64.924 387.472 68.116C387.472 71.156 386.687 73.9173 385.116 76.4C383.596 78.8827 381.367 80.8587 378.428 82.328C375.489 83.7973 372.019 84.532 368.016 84.532Z" fill="white"/>
</svg>
