<svg id="Layer_1" data-name="Layer 1" xmlns="http://www.w3.org/2000/svg" viewBox="0 0 1920 1920"><defs><style>.cls-1{fill:#fff;}</style></defs><title>Untitled-2</title><path class="cls-1" d="M1178.23,544.43,1195.61,527V468.62l17-17v-29a7,7,0,1,0-2.5,0v28l-15.75,15.75-12.91-12.91V422.58a7,7,0,1,0-2.5,0v31.88l14.16,14.16V526l-15.61,15.61-50.41-50.41V418.88l19-19V321.56a7,7,0,1,0-2.5,0v77.26l-17.78,17.78-26.07-26.08V358.88l24.4-24.41V257.75l39.43-39.43a7.05,7.05,0,1,0-1.76-1.77l-40.16,40.16v76.73l-21.91,21.91V253.62a8.28,8.28,0,1,0-2.5,0v73.65l-28.9-28.9V228.71a7,7,0,1,0-2.49,0V299.4l31.39,31.4v60.76l27.32,27.32v69.83l-21.49-21.49V430L1064,390.91V338.23a7,7,0,1,0-2.49,0v50.19l-23.2-23.2V337.8l-19.18-19.18V270.1a7,7,0,1,0-2.5,0v49.55l19.19,19.19v23.89l-63.3-63.3a7,7,0,1,0-1.76,1.77L1020,350.43H979.6l-18.37-18.36a6.92,6.92,0,0,0,1.25-4,7,7,0,1,0-7,7,6.92,6.92,0,0,0,4-1.25l17.85,17.85-17.73,17.73a6.94,6.94,0,1,0,1.77,1.76l18.24-18.24h42.87l78.14,78.14v33.66l-29-29a6.88,6.88,0,0,0,1.25-4,7,7,0,1,0-3,5.74L1101,468.62l74.76,74.76V588l171.08,171.08v330.05h2.49V758.05L1178.23,587Zm-85.49-299a5.78,5.78,0,1,1,5.78,5.78A5.78,5.78,0,0,1,1092.74,245.47Z" transform="translate(-937.44 -27.55)"/><path class="cls-1" d="M1128.84,574.62l-77.53-77.53V456.81l-21.88-21.88V423.07a8.28,8.28,0,1,0-2.5,0V436l21.88,21.88v38.51h-23l-23-23a7,7,0,1,0-1.76,1.76l23.71,23.71h24.82l48.88,48.88h-30.65l-17.39-17.39a7,7,0,1,0-5.74,3,6.86,6.86,0,0,0,4-1.25l18.13,18.13h34.17l26.89,26.89h29.68l185.3,185.29v326.73h2.49V761.38L1158.53,574.62ZM1022.4,414.91a5.78,5.78,0,1,1,5.78,5.79A5.79,5.79,0,0,1,1022.4,414.91Z" transform="translate(-937.44 -27.55)"/><path class="cls-1" d="M1176.36,651.68l-42.21-42.21H1032.82a7,7,0,1,0,0,2.5h97.8L1117,625.62H998.74a7,7,0,1,0,0,2.5H1118l15.64-15.63,23.91,23.91H1019.41l-12.5,12.5a7.05,7.05,0,1,0,1.77,1.77l11.76-11.77h139.61l15.28,15.28h51.88l111.56,111.56v323.4h2.5V764.71l-113-113Z" transform="translate(-937.44 -27.55)"/><path class="cls-1" d="M1218.91,698.17l-24.79-24.79h-80.56a7,7,0,1,0,0,2.5h79.53l22.29,22.29H1078.29l-27.92-27.92a7.09,7.09,0,1,0-1.77,1.76l28.65,28.65h100l-22.57,22.57H1088.6a7,7,0,1,0,0,2.5h67.11l25.06-25.07h85.58l68.41,68.41v320.07h2.49V768l-69.87-69.87Z" transform="translate(-937.44 -27.55)"/><path class="cls-1" d="M1232.21,742.51l-18.73-18.73a7,7,0,1,0-1.77,1.77l17,17h-89.49l-8.6-8.59H996.48l-10-10c.1-.15.24-.26.34-.41a8.47,8.47,0,0,0,.44-8.26,7.37,7.37,0,0,0-3.62-3.62,8.36,8.36,0,0,0-11.21,11.22,7.41,7.41,0,0,0,3.62,3.62,9,9,0,0,0,3.79.85,8.14,8.14,0,0,0,4.86-1.65l10.74,10.73h134.11l7.35,7.35-20.65,20.64h-79.89l-11.3,11.3a7.09,7.09,0,1,0,1.76,1.77l10.57-10.57h50.07l-16.23,16.22a7,7,0,1,0,1.77,1.77l18-18h26.3L1139.19,745h112.3l-34.77,34.77h-39.33a7,7,0,1,0,0,2.5h40.36L1255,745h48.33l27.39,27.39v316.74h2.49V771.36l-28.84-28.85ZM977.1,724.21a5,5,0,0,1-2.4-2.4,6,6,0,0,1,.28-5.87,5.76,5.76,0,0,1,4.88-2.66,6.55,6.55,0,0,1,2.75.63,5,5,0,0,1,2.4,2.39,6,6,0,0,1-.28,5.87A6,6,0,0,1,977.1,724.21Z" transform="translate(-937.44 -27.55)"/><path class="cls-1" d="M1618.19,603.63,1693,528.87l39.24-39.24a7.09,7.09,0,1,0-1.76-1.77L1693.32,525V471.23l23.94-23.94h63.54l7.32-7.33a6.92,6.92,0,0,0,4,1.25,7,7,0,1,0-7-7,6.92,6.92,0,0,0,1.25,4l-6.6,6.59h-60l44.55-44.55h35.21L1816,383.71a6.92,6.92,0,0,0,4,1.25,7,7,0,1,0-7-7,6.92,6.92,0,0,0,1.25,4l-15.8,15.79H1766.8L1813,351.58a7,7,0,0,0,4,1.26,7,7,0,1,0-7-7,7,7,0,0,0,1.26,4l-47.93,47.93h0v0l-27.93,27.93v-27.9a7,7,0,1,0-2.5,0v30.39l-42,42v24.39l-22.33-22.32a7,7,0,1,0-1.76,1.76l24.09,24.09v29.35l-75.12,75.12v44.63L1444.62,818.3v270.84h2.49V819.33l171.08-171.07Z" transform="translate(-937.44 -27.55)"/><path class="cls-1" d="M1661.18,671.84l42.21-42.21h66.38L1791,650.86a7,7,0,1,0,1.77-1.77l-19.47-19.46h71.89l22.31-22.31a7,7,0,1,0-3-5.74,6.88,6.88,0,0,0,1.25,4l-21.58,21.58H1738.73l18-18h55a7,7,0,1,0,0-2.49h-56l-20.48,20.48h-32.84l-42.21,42.21h-51.88L1452.65,825v264.18h2.5V826L1609.3,671.84Z" transform="translate(-937.44 -27.55)"/><path class="cls-1" d="M1669.06,708.68,1701.72,676l23.4,23.4h49a7,7,0,1,0,0-2.49h-48l-21.42-21.42H1835l20.61,20.61a7,7,0,1,0,5.74-3,6.91,6.91,0,0,0-4,1.25l-20.1-20.1L1860,651.59a8.19,8.19,0,0,0,4.88,1.62,8.28,8.28,0,1,0-8.27-8.27,8.19,8.19,0,0,0,1.62,4.88L1835,673H1701.2L1668,706.18h-89.26l-122.1,122.1v260.86h2.5V829.32l120.64-120.64Zm195.79-69.52a5.78,5.78,0,1,1-5.78,5.78A5.79,5.79,0,0,1,1864.85,639.16Z" transform="translate(-937.44 -27.55)"/><path class="cls-1" d="M1325.38,457.26l-21.74-21.74,17.06-17.06V385a7,7,0,1,0-2.49,0v32.42l-15.08,15.08V290.34a8.28,8.28,0,1,0-2.5,0v62.33l-16.5-16.49V243.67l23-23V147.11a7,7,0,1,0-2.49,0v72.47l-20.56,20.56V188.68a7,7,0,1,0-2.49,0V337.21l19,19V436l22.25,22.25v95.4l47.21,47.21v488.24h2.49V599.86l-47.2-47.2ZM1296.1,282.19a5.78,5.78,0,1,1,5.78,5.78A5.78,5.78,0,0,1,1296.1,282.19Z" transform="translate(-937.44 -27.55)"/><path class="cls-1" d="M1359.92,454.94l39.47-39.47V375.25l-18.17-18.17v-39a7,7,0,1,0-2.5,0v40l18.17,18.17v38.16l-38.22,38.22-12.16-12.16V335.12l11.92-11.92V280.89l43.45-43.44a8.19,8.19,0,0,0,4.88,1.62,8.28,8.28,0,1,0-8.28-8.27,8.2,8.2,0,0,0,1.63,4.88l-44.18,44.18v42.3l-10.66,10.67-16.93-16.93V237.74l41.57-41.58a6.91,6.91,0,0,0,4,1.25,7,7,0,1,0-7-7,6.91,6.91,0,0,0,1.25,4l-39.81,39.81V176.75l23.24-23.25V67.72a7,7,0,1,0-2.49,0v84.75l-20.75,20.75v-56.3L1306.5,95.08a7,7,0,1,0-1.77,1.77L1325.84,118V236.7l-.24.24.24.24v79.76L1344,335.12V441.54l13.4,13.4V560.8l16.68,16.69v511.65h2.5V576.45l-16.68-16.68ZM1406.76,225a5.78,5.78,0,1,1-5.78,5.78A5.78,5.78,0,0,1,1406.76,225Z" transform="translate(-937.44 -27.55)"/><path class="cls-1" d="M1397.74,614.27l9.38-9.38a7.05,7.05,0,1,0-1.77-1.77l-7.61,7.62V567.41L1415,550.2V473.32l-18.19-18.19a7.09,7.09,0,1,0-1.77,1.76l17.47,17.47v74.8l-14.72,14.72V505.49L1378,485.74a7.09,7.09,0,1,0-1.77,1.76l19,19v57.36l-20.2-20.2a7.09,7.09,0,1,0-1.77,1.76l22,22v89l-17.13,17.13v415.6h2.5V674.57l17.12-17.13Z" transform="translate(-937.44 -27.55)"/><path class="cls-1" d="M1400.28,685.22,1417.56,668V622.8l18.93-18.93V471l14.24-14.24V418.88l24.12-24.12V290.3l-15.78-15.78V259.88a7,7,0,1,0-2.5,0v15.67l15.78,15.78V393.72l-21.62,21.63V397.68l-24-24v-5.66L1447,347.8V310.24a7,7,0,1,0-2.49,0v36.52l-17.76,17.76V261.08a7,7,0,1,0-2.5,0V374.75l24,24v57L1434,470V602.84l-18.93,18.93v45.14l-17.28,17.28v30.62l-15.65,15.65v358.68h2.49V731.49l15.65-15.65Z" transform="translate(-937.44 -27.55)"/><path class="cls-1" d="M1448,729.92l30.16-30.17V586.68l29.2-29.2V444.08l18.63-18.62V378.29l34.8-34.81V196.31l24.08-24.07a7,7,0,1,0-1.77-1.77l-24.8,24.81V261.5L1526.74,230V85.49a7,7,0,1,0-2.49,0V166.3l-27-27v-31a7,7,0,1,0-2.5,0v32l29.51,29.51V231l34,34v77.42l-34.81,34.81v47.17l-16.13,16.12V345.83l16.55-16.55v-40.9a8.28,8.28,0,1,0-2.5,0v39.86l-15.3,15.3-18.69-18.69V208.09a7,7,0,1,0-2.5,0V325.88l20,19.95V556.45l-29.2,29.2V698.72l-30.17,30.16v55.48l-26.82,26.82v278h2.49V812.21L1448,785.39Zm68.88-449.69a5.78,5.78,0,1,1,5.78,5.78A5.78,5.78,0,0,1,1516.83,280.23Z" transform="translate(-937.44 -27.55)"/><path class="cls-1" d="M1500.56,647.74l36.57-36.58V542.5l19.44-19.44V498.63a7,7,0,1,0-2.49,0V522L1537.13,539V484l32.32-32.31v-29.1a7,7,0,1,0-2.5,0v25.57l-20-20v-37.9a7,7,0,1,0-2.5,0v38.93l22,22L1534.64,483V610.13l-36.58,36.57v92.39l-75.42,75.41v274.64h2.5V815.54l75.42-75.42Z" transform="translate(-937.44 -27.55)"/><path class="cls-1" d="M1529.41,683.05l34-34v-55.5l36.36-36.36v-162l30.46-30.46V314L1647,297.25V158.94a7,7,0,1,0-2.5,0v84l-41.37-41.37a7,7,0,1,0-5.74,3,6.88,6.88,0,0,0,4-1.25l43.14,43.14v49.75L1629,311.75l-34.64-34.64a7.07,7.07,0,1,0-1.76,1.76L1627.74,314v49.62l-29.21,29.21-18.62-18.63V338.15a7,7,0,1,0-2.5,0v37.11l19.87,19.88v161l-36.36,36.36V648l-34,34v35.56L1426.66,817.83v271.31h2.49V818.87l100.26-100.25Z" transform="translate(-937.44 -27.55)"/><path class="cls-1" d="M1577.57,614.53l62.9-62.91V459L1768.8,330.63h0l.09-.09.27-.27h0L1790,309.45a8.22,8.22,0,1,0-3.38-6.62,8.1,8.1,0,0,0,1.62,4.85l-19.06,19.06V261.28a7,7,0,1,0-2.49,0v68l-33.93,33.92V311.47a7,7,0,1,0-2.5,0v54.19l-27.2,27.2-20.65-20.66v-55a7,7,0,1,0-2.5,0v56l21.39,21.39-60.81,60.81V424.48l22.2-22.2v-195l12.75-12.75a7.09,7.09,0,1,0-1.76-1.77l-13.48,13.48v195L1638,423.45v92.9l-20.49-20.49V450.18a8.28,8.28,0,1,0-2.49,0v46.71l23,23v30.71l-62.9,62.9v63.28L1430.68,821.16v268h2.49V822.2l144.4-144.4Zm217.27-317.44a5.74,5.74,0,1,1-5.74,5.74A5.75,5.75,0,0,1,1794.84,297.09ZM1610.45,442a5.79,5.79,0,1,1,5.79,5.78A5.79,5.79,0,0,1,1610.45,442Z" transform="translate(-937.44 -27.55)"/><path class="cls-1" d="M1416.94,688.49l31.4-31.4V557.26L1481.55,524V435.61a7,7,0,1,0-2.5,0v84.91l-17.2-17.21v-24a8.28,8.28,0,1,0-2.5,0v25l19.18,19.18-32.69,32.69v99.83l-31.4,31.4v87.43l-16.22,16.22v298h2.5v-297l16.22-16.22Zm37.88-217.33a5.78,5.78,0,1,1,5.78,5.78A5.78,5.78,0,0,1,1454.82,471.16Z" transform="translate(-937.44 -27.55)"/><path class="cls-1" d="M1421,729.6l45-45V567.46l25.17-25.17v-52a7,7,0,1,0-2.5,0v51l-25.17,25.17V683.57l-45,45v49.64l-16.22,16.21v294.72h2.49V795.46L1421,779.24Z" transform="translate(-937.44 -27.55)"/><path class="cls-1" d="M1331.41,614V587a7,7,0,1,0-2.49,0v24l-20.78-20.78V548.85a7,7,0,1,0-2.49,0v42.41l23.27,23.27v29.34l-30.38-30.38V528.88l-25.45-25.44V382.83a7,7,0,1,0-2.5,0V456.1l-9.84-9.85a7,7,0,0,0,1.26-4,7.05,7.05,0,1,0-3,5.77l11.61,11.61v44.84L1296,529.92V611l-31.38-31.39V552.35l8.47-8.47V536.3a7,7,0,1,0-2.5,0v6.55l-8.47,8.47v25.8l-17.44-17.44V403.4l9-9V225.28a7,7,0,1,0-2.5,0v168l-7.79,7.78L1198,355.69l26.31-26.31V282.9a7,7,0,1,0-2.5,0v45.45l-24.32,24.32V305.81a8.28,8.28,0,1,0-2.5,0V356.2l47.2,47.2V560.71l123.84,123.85v404.58h2.5V683.52l-37.16-37.15ZM1190.5,297.66a5.78,5.78,0,1,1,5.78,5.78A5.79,5.79,0,0,1,1190.5,297.66Z" transform="translate(-937.44 -27.55)"/><path class="cls-1" d="M1225.1,568.16V525a8.28,8.28,0,1,0-2.5,0v42.12l-11.29,11.3V492.24l22.52-22.52V422.58a7,7,0,1,0-2.49,0v46.1l-22.53,22.53V582L1356,729.17v360h2.5v-361l-146.7-146.7Zm-7-51.31a5.78,5.78,0,1,1,5.78,5.78A5.79,5.79,0,0,1,1218.07,516.85Z" transform="translate(-937.44 -27.55)"/><path class="cls-1" d="M1878.62,515.77a7,7,0,0,0-5.77,11l-25.38,25.37V515.46a7,7,0,1,0-2.49,0v39.21l-29,29.05h-55.59l30.5-30.49V529.66a7,7,0,1,0-2.5,0v22.53l-31.52,31.53H1718V557.26l70.58-70.58h51.14l28.56-28.56a7.05,7.05,0,1,0-1.76-1.77l-27.83,27.83h-47.61L1816.29,459a9.4,9.4,0,0,0,5,1.53,8.24,8.24,0,0,0,7.42-4.6,9,9,0,0,0-1.28-9.58l-.24-.24a9.81,9.81,0,0,0-5.9-2.13,8.23,8.23,0,0,0-7.42,4.61,8.8,8.8,0,0,0,.66,8.66l-99,99v28.23l-48.65,48.65V595.19l29.31-29.3v-17a7,7,0,1,0-2.5,0v16l-29.3,29.3v40.72H1635.4L1448.64,821.63v267.51h2.49V822.66l185.3-185.3h29.68l51.15-51.14H1817l57.65-57.65a7,7,0,1,0,4-12.8Zm-62.54-66.12c1.62-3.27,6-4.23,9.44-1.69a6.44,6.44,0,0,1,.93,6.82c-1.62,3.27-6,4.23-9.44,1.69A6.46,6.46,0,0,1,1816.08,449.65Z" transform="translate(-937.44 -27.55)"/><path class="cls-1" d="M1362.32,351.68a7,7,0,1,0,4,12.8l13.31,13.31v33l-7.61,7.61a8.4,8.4,0,1,0,1.76,1.77l8.34-8.34v-35.1l-14-14a7,7,0,0,0-5.77-11Zm4.81,79.17a5.78,5.78,0,1,1,5.79-5.78A5.79,5.79,0,0,1,1367.13,430.85Z" transform="translate(-937.44 -27.55)"/><path class="cls-1" d="M1417,351.33a7,7,0,1,0-8.28,6.91v48.68l12,12v20.87a7,7,0,1,0,2.49,0V417.84l-12-12V358.24A7,7,0,0,0,1417,351.33Z" transform="translate(-937.44 -27.55)"/><path class="cls-1" d="M1286.16,441.39a7,7,0,1,0,4,12.79l10.47,10.47v32a7,7,0,1,0,2.5,0v-33l-11.2-11.19a7,7,0,0,0-5.77-11Z" transform="translate(-937.44 -27.55)"/><path class="cls-1" d="M1247.47,587.14a7,7,0,1,0,0,14.06,7,7,0,0,0,4-1.26L1320,668.47a8.2,8.2,0,0,0-1.63,4.88,8.28,8.28,0,1,0,8.28-8.28,8.2,8.2,0,0,0-4.88,1.63l-68.53-68.53a7,7,0,0,0-5.77-11Zm79.18,80.43a5.78,5.78,0,1,1-5.78,5.78A5.78,5.78,0,0,1,1326.65,667.57Z" transform="translate(-937.44 -27.55)"/><path class="cls-1" d="M1104.54,490.05a7,7,0,1,0-8.28,6.9v21.38l36,36a7,7,0,1,0,5.77-3,6.89,6.89,0,0,0-4,1.26l-35.32-35.32V497A7,7,0,0,0,1104.54,490.05Z" transform="translate(-937.44 -27.55)"/><path class="cls-1" d="M1185,387.12a7,7,0,1,0-4-12.8l-9.1-9.1V315a7,7,0,1,0-2.49,0v51.26l9.83,9.83a7,7,0,0,0,5.77,11Z" transform="translate(-937.44 -27.55)"/><path class="cls-1" d="M1173.17,504.3a7,7,0,1,0-4-12.8l-20-20v-37.3a8.28,8.28,0,1,0-2.49,0v38.34l20.69,20.69a7,7,0,0,0,5.77,11Zm-31-78.22a5.79,5.79,0,1,1,5.78,5.78A5.8,5.8,0,0,1,1142.17,426.08Z" transform="translate(-937.44 -27.55)"/><path class="cls-1" d="M1575.31,481.61a7,7,0,1,0-2.5,0V545l-15.23,15.22a8.2,8.2,0,0,0-4.88-1.63,8.28,8.28,0,1,0,8.28,8.28,8.2,8.2,0,0,0-1.63-4.88l16-16Zm-22.61,91.06a5.78,5.78,0,1,1,5.78-5.78A5.78,5.78,0,0,1,1552.7,572.67Z" transform="translate(-937.44 -27.55)"/><path class="cls-1" d="M1700.68,226.51v81.55l27.9-27.91V260.44a7,7,0,1,0-2.49,0v18.68L1703.18,302V226.51a8.28,8.28,0,1,0-2.5,0Zm1.25-13.93a5.78,5.78,0,1,1-5.78,5.78A5.79,5.79,0,0,1,1701.93,212.58Z" transform="translate(-937.44 -27.55)"/><path class="cls-1" d="M1519,589.53a7.05,7.05,0,1,0-5.77-3l-19.37,19.37a7.05,7.05,0,1,0,1.77,1.77L1515,588.26A6.92,6.92,0,0,0,1519,589.53Z" transform="translate(-937.44 -27.55)"/><path class="cls-1" d="M1556.21,103.93v49.56l30.29-30.28a7,7,0,1,0-3-5.77,6.9,6.9,0,0,0,1.27,4l-26,26V103.93a7,7,0,1,0-2.5,0Z" transform="translate(-937.44 -27.55)"/><path class="cls-1" d="M1355.08,94.41a7,7,0,0,0,5.78,6.91V133l19.53,19.52,28.87-28.88h0l.14-.13.23-.23h0l32.75-32.75V41.4a7,7,0,1,0-2.5,0V89.45l-30.25,30.25V64.09a7,7,0,1,0-2.5,0v58.1l-26.74,26.75-17-17V101.32a7,7,0,1,0-8.28-6.91Z" transform="translate(-937.44 -27.55)"/><path class="cls-1" d="M1243.89,194.54a8.26,8.26,0,0,0,1.25-16.43v-22.7l29.54-29.54a7,7,0,1,0-1.77-1.76l-30.27,30.27v23.73a8.26,8.26,0,0,0,1.25,16.43Zm0-14.06a5.78,5.78,0,1,1-5.78,5.78A5.79,5.79,0,0,1,1243.89,180.48Z" transform="translate(-937.44 -27.55)"/><path class="cls-1" d="M1463.88,126.14v63.24l-27,27V145.19a7,7,0,1,0-2.5,0v71.15L1408,189.91V163.38a7,7,0,1,0-2.5,0v27.56l30.17,30.18,30.7-30.7V126.14a7,7,0,1,0-2.5,0Z" transform="translate(-937.44 -27.55)"/><path class="cls-1" d="M1213.28,163.38V228.6l-44.45,44.45v-9.94a7,7,0,1,0-2.5,0v16l49.44-49.45V163.38a7,7,0,1,0-2.49,0Z" transform="translate(-937.44 -27.55)"/><path class="cls-1" d="M971.36,582.07l31.83-31.84h26.51l47,47h73.84l23,23.06a8.2,8.2,0,0,0-1.63,4.88,8.28,8.28,0,1,0,8.28-8.28,8.2,8.2,0,0,0-4.88,1.63l-23.79-23.79h-73.84L960.26,477.26a8.4,8.4,0,1,0-1.77,1.76l68.71,68.71H979.6L955.27,523.4a7.05,7.05,0,1,0-1.77,1.76l25.07,25.07h21.09L969.59,580.3a7,7,0,1,0,1.77,1.77Zm208.84,37.28a5.78,5.78,0,1,1-5.78,5.78A5.78,5.78,0,0,1,1180.2,619.35ZM953.61,478.15a5.78,5.78,0,1,1,5.78-5.78A5.78,5.78,0,0,1,953.61,478.15Z" transform="translate(-937.44 -27.55)"/><path class="cls-1" d="M1873.41,749.16a7,7,0,0,0-6.86,5.74h-39.87L1804.76,733l9.45-9.46a8.19,8.19,0,0,0,4.89,1.63,8.35,8.35,0,1,0-6.65-3.39l-10,10h-76.7l-8.6,8.6h-49.91L1683,724.55a7,7,0,1,0-1.77-1.77l-17.54,17.54H1552l-91.29,91.29v257.53h2.49V832.64L1553,742.82h66.55l28.93,28.93h43.06l23.33,23.32a7,7,0,1,0,12.73,4,7,7,0,0,0-7-7,6.92,6.92,0,0,0-4,1.25l-24.06-24.06h-43.06l-26.43-26.43h94.08L1738.39,764h53l12.9,12.9a7,7,0,1,0,5.77-3,6.9,6.9,0,0,0-4,1.27l-13.64-13.64h-53l-20-20,7.34-7.35h75.67l23.18,23.17h40.9a7,7,0,1,0,6.86-8.23Zm-54.31-38.07a5.78,5.78,0,1,1-5.78,5.78A5.79,5.79,0,0,1,1819.1,711.09Z" transform="translate(-937.44 -27.55)"/><path class="cls-1" d="M951.42,420.94a7,7,0,0,0-1.25-4l15.32-15.32v27a7,7,0,1,0,2.49,0v-29.5l12.45-12.46h35.69a7,7,0,1,0,0-2.49H979.4l-31,31a7,7,0,1,0,3,5.74Z" transform="translate(-937.44 -27.55)"/><path class="cls-1" d="M1018.88,458.11a7,7,0,1,0,0-14,6.91,6.91,0,0,0-4,1.25l-16-16V415.84a7,7,0,1,0-2.49,0v14.58l16.73,16.73a7,7,0,0,0,5.73,11Z" transform="translate(-937.44 -27.55)"/></svg>